<svg xmlns="http://www.w3.org/2000/svg" xmlns:xlink="http://www.w3.org/1999/xlink" width="3456" zoomAndPan="magnify" viewBox="0 0 2592 1727.999927" height="2304" preserveAspectRatio="xMidYMid meet" version="1.0"><defs><clipPath id="b67a8378a9"><path d="M 122 113 L 2448 113 L 2448 1653 L 122 1653 Z M 122 113 " clip-rule="nonzero"/></clipPath><clipPath id="7a9f3825ce"><path d="M 194.070312 0 L 2535.03125 201.125 L 2403.347656 1733.828125 L 62.386719 1532.703125 Z M 194.070312 0 " clip-rule="nonzero"/></clipPath><clipPath id="89ca5f77bd"><path d="M 1520.140625 113.929688 C 1545.757812 116.132812 1571.53125 118.347656 1597.097656 120.542969 C 1798.734375 163.65625 1918.804688 259.8125 1964.847656 404.234375 C 2306.277344 414.835938 2530.703125 699.71875 2357.894531 945.542969 C 2403.296875 1004.21875 2439.84375 1068.632812 2447.917969 1151.5625 C 2445.90625 1174.949219 2443.902344 1198.277344 2441.894531 1221.660156 C 2379.085938 1425.566406 2173.5625 1549.339844 1859.199219 1484.253906 C 1768.316406 1583.914062 1613.730469 1678.253906 1388.601562 1645.507812 C 1272.246094 1628.457031 1194.367188 1580.902344 1127.363281 1525.496094 C 1048.8125 1560.015625 964.785156 1585.1875 847.34375 1575.453125 C 575.65625 1552.71875 407.503906 1379.28125 421.699219 1162.414062 C 251.425781 1096.765625 141.273438 992.070312 122.96875 827.542969 C 124.980469 804.160156 126.992188 780.730469 128.992188 757.445312 C 178.308594 600.203125 298.800781 509.125 488.6875 482.445312 C 500.730469 211.078125 887.738281 74.117188 1183.515625 219.535156 C 1261.433594 166.886719 1370.035156 111.492188 1520.140625 113.929688 Z M 1520.140625 113.929688 " clip-rule="nonzero"/></clipPath><clipPath id="b812eba47d"><path d="M 0.878906 0 L 2326 0 L 2326 1540 L 0.878906 1540 Z M 0.878906 0 " clip-rule="nonzero"/></clipPath><clipPath id="5340265abd"><path d="M 72.070312 -113 L 2413.03125 88.125 L 2281.347656 1620.828125 L -59.613281 1419.703125 Z M 72.070312 -113 " clip-rule="nonzero"/></clipPath><clipPath id="80aff5903e"><path d="M 1398.140625 0.929688 C 1423.757812 3.132812 1449.53125 5.347656 1475.097656 7.542969 C 1676.734375 50.65625 1796.804688 146.8125 1842.847656 291.234375 C 2184.277344 301.835938 2408.703125 586.71875 2235.894531 832.542969 C 2281.296875 891.21875 2317.84375 955.632812 2325.917969 1038.5625 C 2323.90625 1061.949219 2321.902344 1085.277344 2319.894531 1108.660156 C 2257.085938 1312.566406 2051.5625 1436.339844 1737.199219 1371.253906 C 1646.316406 1470.914062 1491.730469 1565.253906 1266.601562 1532.507812 C 1150.246094 1515.457031 1072.367188 1467.902344 1005.363281 1412.496094 C 926.8125 1447.015625 842.785156 1472.1875 725.34375 1462.453125 C 453.65625 1439.71875 285.503906 1266.28125 299.699219 1049.414062 C 129.425781 983.765625 19.273438 879.070312 0.96875 714.542969 C 2.980469 691.160156 4.992188 667.730469 6.992188 644.445312 C 56.308594 487.203125 176.800781 396.125 366.6875 369.445312 C 378.730469 98.078125 765.738281 -38.882812 1061.515625 106.535156 C 1139.433594 53.886719 1248.035156 -1.507812 1398.140625 0.929688 Z M 1398.140625 0.929688 " clip-rule="nonzero"/></clipPath><clipPath id="02b9b53e6d"><rect x="0" width="2326" y="0" height="1540"/></clipPath><clipPath id="e61c07a300"><path d="M 712 232 L 1835 232 L 1835 1498.910156 L 712 1498.910156 Z M 712 232 " clip-rule="nonzero"/></clipPath><clipPath id="c612e84b09"><path d="M 712 229.164062 L 1144 229.164062 L 1144 716 L 712 716 Z M 712 229.164062 " clip-rule="nonzero"/></clipPath></defs><g clip-path="url(#b67a8378a9)"><g clip-path="url(#7a9f3825ce)"><g clip-path="url(#89ca5f77bd)"><g transform="matrix(1, 0, 0, 1, 122, 113)"><g clip-path="url(#02b9b53e6d)"><g clip-path="url(#b812eba47d)"><g clip-path="url(#5340265abd)"><g clip-path="url(#80aff5903e)"><path fill="#000000" d="M 72.070312 -113 L 2407.042969 87.613281 L 2275.359375 1620.3125 L -59.613281 1419.703125 Z M 72.070312 -113 " fill-opacity="1" fill-rule="nonzero"/></g></g></g></g></g></g></g></g><g clip-path="url(#e61c07a300)"><path fill="#ffffff" d="M 1833.058594 866.398438 L 1834.324219 864.121094 C 1834.324219 864.121094 1484.210938 863.109375 1389.347656 751.296875 C 1297.515625 643.277344 1276.773438 344.515625 1272.980469 232.703125 C 1269.183594 344.515625 1248.691406 643.277344 1156.863281 751.296875 C 1062 863.109375 712.140625 864.121094 712.140625 864.121094 L 713.65625 866.398438 L 712.140625 867.917969 C 712.140625 867.917969 1062 868.421875 1156.863281 980.238281 C 1248.691406 1088.257812 1269.183594 1387.015625 1272.980469 1498.832031 C 1276.773438 1387.015625 1297.769531 1088.257812 1389.347656 980.238281 C 1484.210938 868.421875 1834.324219 867.917969 1834.324219 867.917969 Z M 1833.058594 866.398438 " fill-opacity="1" fill-rule="nonzero"/></g><path fill="#ffffff" d="M 1879.859375 1204.117188 C 1879.859375 1204.117188 1745.277344 1203.613281 1708.597656 1160.605469 C 1673.179688 1119.117188 1665.339844 1004.269531 1663.820312 961.265625 C 1662.304688 1004.269531 1654.460938 1119.117188 1619.296875 1160.605469 C 1582.871094 1203.613281 1448.289062 1204.117188 1448.289062 1204.117188 L 1448.792969 1204.875 L 1448.289062 1205.382812 C 1448.289062 1205.382812 1582.871094 1205.636719 1619.296875 1248.640625 C 1654.714844 1290.128906 1662.554688 1404.976562 1663.820312 1447.984375 C 1665.339844 1404.976562 1673.433594 1290.128906 1708.597656 1248.640625 C 1745.023438 1205.636719 1879.859375 1205.382812 1879.859375 1205.382812 L 1879.351562 1204.875 Z M 1879.859375 1204.117188 " fill-opacity="1" fill-rule="nonzero"/><g clip-path="url(#c612e84b09)"><path fill="#ffffff" d="M 883.148438 516.539062 C 918.5625 558.027344 926.40625 672.875 927.671875 715.882812 C 929.1875 672.875 937.285156 558.027344 972.449219 516.539062 C 1008.875 473.535156 1143.710938 473.28125 1143.710938 473.28125 L 1143.203125 472.773438 L 1143.710938 472.015625 C 1143.710938 472.015625 1009.128906 471.507812 972.449219 428.503906 C 937.03125 387.015625 929.1875 272.167969 927.671875 229.164062 C 926.152344 272.167969 918.3125 387.015625 883.148438 428.503906 C 846.71875 471.507812 712.140625 472.015625 712.140625 472.015625 L 712.644531 472.773438 L 712.140625 473.28125 C 712.140625 473.28125 846.71875 473.535156 883.148438 516.539062 Z M 883.148438 516.539062 " fill-opacity="1" fill-rule="nonzero"/></g></svg>