<svg xmlns="http://www.w3.org/2000/svg" xmlns:xlink="http://www.w3.org/1999/xlink" width="3456" zoomAndPan="magnify" viewBox="0 0 2592 1727.999927" height="2304" preserveAspectRatio="xMidYMid meet" version="1.0"><defs><clipPath id="e00a6bae2d"><path d="M 125 111 L 2413 111 L 2413 1625 L 125 1625 Z M 125 111 " clip-rule="nonzero"/></clipPath><clipPath id="23d4650b90"><path d="M 195.714844 0 L 2498.109375 197.8125 L 2368.597656 1705.261719 L 66.203125 1507.449219 Z M 195.714844 0 " clip-rule="nonzero"/></clipPath><clipPath id="e38ccb35e0"><path d="M 1499.941406 112.054688 C 1525.136719 114.21875 1550.480469 116.394531 1575.628906 118.558594 C 1773.945312 160.957031 1892.035156 255.53125 1937.320312 397.574219 C 2273.125 408 2493.855469 688.191406 2323.894531 929.964844 C 2368.546875 987.675781 2404.492188 1051.027344 2412.429688 1132.589844 C 2410.453125 1155.589844 2408.484375 1178.535156 2406.507812 1201.53125 C 2344.730469 1402.078125 2142.597656 1523.8125 1833.414062 1459.800781 C 1744.027344 1557.820312 1591.984375 1650.605469 1370.566406 1618.398438 C 1256.128906 1601.628906 1179.535156 1554.855469 1113.632812 1500.363281 C 1036.375 1534.316406 953.734375 1559.070312 838.226562 1549.496094 C 571.015625 1527.140625 405.632812 1356.554688 419.59375 1143.265625 C 252.125 1078.699219 143.789062 975.726562 125.789062 813.910156 C 127.761719 790.914062 129.742188 767.867188 131.710938 744.96875 C 180.214844 590.316406 298.722656 500.738281 485.480469 474.496094 C 497.324219 207.601562 877.957031 72.894531 1168.859375 215.917969 C 1245.496094 164.136719 1352.308594 109.65625 1499.941406 112.054688 Z M 1499.941406 112.054688 " clip-rule="nonzero"/></clipPath><clipPath id="02d49efde1"><path d="M 0.761719 0 L 2288 0 L 2288 1514 L 0.761719 1514 Z M 0.761719 0 " clip-rule="nonzero"/></clipPath><clipPath id="e9edd08ef2"><path d="M 70.714844 -111 L 2373.109375 86.8125 L 2243.597656 1594.261719 L -58.796875 1396.449219 Z M 70.714844 -111 " clip-rule="nonzero"/></clipPath><clipPath id="b35f1ecfdd"><path d="M 1374.941406 1.054688 C 1400.136719 3.21875 1425.480469 5.394531 1450.628906 7.558594 C 1648.945312 49.957031 1767.035156 144.53125 1812.320312 286.574219 C 2148.125 297 2368.855469 577.191406 2198.894531 818.964844 C 2243.546875 876.675781 2279.492188 940.027344 2287.429688 1021.589844 C 2285.453125 1044.589844 2283.484375 1067.535156 2281.507812 1090.53125 C 2219.730469 1291.078125 2017.597656 1412.8125 1708.414062 1348.800781 C 1619.027344 1446.820312 1466.984375 1539.605469 1245.566406 1507.398438 C 1131.128906 1490.628906 1054.535156 1443.855469 988.632812 1389.363281 C 911.375 1423.316406 828.734375 1448.070312 713.226562 1438.496094 C 446.015625 1416.140625 280.632812 1245.554688 294.59375 1032.265625 C 127.125 967.699219 18.789062 864.726562 0.789062 702.910156 C 2.761719 679.914062 4.742188 656.867188 6.710938 633.96875 C 55.214844 479.316406 173.722656 389.738281 360.480469 363.496094 C 372.324219 96.601562 752.957031 -38.105469 1043.859375 104.917969 C 1120.496094 53.136719 1227.308594 -1.34375 1374.941406 1.054688 Z M 1374.941406 1.054688 " clip-rule="nonzero"/></clipPath><clipPath id="df75c04456"><rect x="0" width="2288" y="0" height="1514"/></clipPath><clipPath id="17f60461a7"><path d="M 634.40625 290.59375 L 1924.40625 290.59375 L 1924.40625 1414.09375 L 634.40625 1414.09375 Z M 634.40625 290.59375 " clip-rule="nonzero"/></clipPath></defs><g clip-path="url(#e00a6bae2d)"><g clip-path="url(#23d4650b90)"><g clip-path="url(#e38ccb35e0)"><g transform="matrix(1, 0, 0, 1, 125, 111)"><g clip-path="url(#df75c04456)"><g clip-path="url(#02d49efde1)"><g clip-path="url(#e9edd08ef2)"><g clip-path="url(#b35f1ecfdd)"><path fill="#000000" d="M 70.714844 -111 L 2367.222656 86.308594 L 2237.707031 1593.757812 L -58.796875 1396.449219 Z M 70.714844 -111 " fill-opacity="1" fill-rule="nonzero"/></g></g></g></g></g></g></g></g><g clip-path="url(#17f60461a7)"><path fill="#ffffff" d="M 1036.898438 1261.960938 C 996.804688 1222.746094 1029.191406 1147.980469 999.441406 1136.992188 C 993.152344 1134.664062 982.003906 1140.910156 976.347656 1151.386719 C 932.289062 1232.96875 1009.164062 1309.699219 949.453125 1391.558594 C 938.257812 1406.910156 923.132812 1415.503906 906.054688 1414.054688 C 889.957031 1412.6875 876.691406 1400.066406 867.710938 1383.035156 C 820.585938 1293.746094 880.957031 1182.378906 833.925781 1136.953125 C 779.214844 1117.550781 723.648438 1159.234375 676.882812 1182.605469 C 730.039062 1207.019531 813.132812 1147.886719 837.582031 1158.925781 C 892.042969 1183.542969 693.027344 1261.097656 645.339844 1197.925781 C 593.492188 1129.238281 747.703125 952.851562 769.398438 901.371094 C 793.261719 844.777344 813.238281 827.925781 861.46875 787.070312 C 900.636719 753.894531 943.914062 685.027344 978.121094 637.207031 C 1007.484375 596.15625 1023.390625 540.019531 1086.214844 530.40625 C 1115.050781 469.519531 1170.246094 455.460938 1152.039062 405.351562 C 1133.808594 355.167969 1163.378906 306.054688 1216.050781 295.566406 C 1258.445312 287.128906 1301.472656 289.800781 1346.273438 300.660156 C 1540.863281 347.847656 1717.574219 456.695312 1845.851562 607.445312 C 1886.339844 655.027344 1892.320312 701.113281 1905.40625 756.421875 C 1916.816406 804.605469 1943.4375 865.058594 1901.34375 911.441406 C 1867.484375 948.738281 1810.269531 965.902344 1760.925781 977.957031 L 1577.636719 1022.722656 C 1570.132812 1098.351562 1657.121094 1187.640625 1591.023438 1247.351562 C 1563.5625 1272.160156 1523.726562 1268.167969 1493.859375 1250.503906 C 1407.949219 1199.722656 1491.246094 1048.058594 1432.167969 1055.335938 C 1415.617188 1057.371094 1427.472656 1099.511719 1410.933594 1132.929688 C 1397.605469 1159.859375 1371.320312 1172.035156 1343.40625 1165.226562 C 1295.503906 1153.542969 1303.183594 1095.164062 1297.972656 1080.265625 C 1291.488281 1061.757812 1174.246094 1119.695312 1138.21875 1113.738281 C 1130.128906 1150.402344 1209.773438 1219.664062 1168.914062 1260.75 C 1136.589844 1293.253906 1071.414062 1295.710938 1036.910156 1261.960938 Z M 1734.402344 809.074219 C 1768.082031 725.238281 1854.960938 755.777344 1861.683594 737.808594 C 1876.679688 697.769531 1809.429688 614.554688 1775.140625 581.476562 C 1659.289062 469.734375 1518.1875 386.390625 1363.996094 338.269531 C 1314.929688 322.953125 1214.867188 308.113281 1185.933594 352.304688 C 1176.046875 367.40625 1181.113281 385.769531 1183.777344 402.894531 C 1195.355469 477.503906 1282.570312 427.882812 1330.078125 469.640625 C 1365.195312 500.503906 1397.160156 523.476562 1443.125 535.378906 C 1540.242188 560.535156 1526.914062 633.25 1597.699219 660.863281 C 1677.113281 691.847656 1678.121094 755.214844 1734.414062 809.0625 Z M 1137.714844 1230.90625 C 1132.886719 1173.4375 1072.863281 1148.183594 1108.066406 1059.960938 C 1138.171875 984.515625 1252.667969 955.917969 1303.402344 990.878906 C 1365.003906 1033.34375 1319.03125 1130.722656 1359.035156 1129.417969 C 1407.179688 1127.847656 1356.699219 999.773438 1429.378906 975.667969 C 1443.207031 971.078125 1466.050781 977.839844 1473.554688 997.601562 C 1514.460938 1105.410156 1466.640625 1184.476562 1511.476562 1215.53125 C 1522.15625 1222.925781 1542.519531 1232.308594 1560.160156 1222.671875 C 1611.53125 1194.582031 1536.859375 1125.019531 1536.203125 995.480469 C 1535.625 884.269531 1646.65625 872.417969 1735.300781 858.296875 C 1701.730469 824.367188 1674.441406 793.160156 1653.765625 753.128906 C 1613.78125 675.75 1560.4375 709.824219 1511.609375 626.3125 C 1494.109375 596.394531 1464.792969 570.855469 1429.988281 564.371094 C 1377.734375 554.652344 1347.542969 521.140625 1306.324219 493.023438 C 1271.472656 469.246094 1211.84375 483.304688 1173.851562 467.21875 C 1156.570312 482.488281 1145.554688 499.398438 1138.089844 514.871094 C 1181.917969 517.785156 1240.082031 529.519531 1249.863281 572.582031 C 1255.375 596.851562 1251.21875 620.835938 1235.457031 640.417969 C 1182.683594 706 1056.144531 739.585938 1005.339844 668.957031 C 965.742188 705.917969 933.429688 746.34375 905.515625 788.304688 C 985.203125 790.90625 1056.421875 830.492188 1056.410156 901.554688 C 1056.410156 929.753906 1042.890625 960.125 1015.730469 978.929688 C 942.417969 1029.6875 840.519531 1013.554688 789.28125 939.929688 C 741.746094 1002.566406 694.824219 1061.640625 671.800781 1141.234375 C 719.109375 1120.09375 757.507812 1096.804688 804.921875 1092.695312 C 956.308594 1079.558594 847.171875 1325.375 912.046875 1374.261719 C 972.128906 1320.019531 889.765625 1231.410156 943.421875 1132.519531 C 957.699219 1106.199219 983.035156 1093.785156 1009.871094 1100.246094 C 1069.234375 1114.542969 1043.429688 1194.542969 1061.191406 1227.226562 C 1073.488281 1249.84375 1125.070312 1254.890625 1137.714844 1230.90625 Z M 1209.195312 613.785156 C 1220.101562 599.726562 1215.453125 584.074219 1211.03125 576.285156 C 1191.734375 542.308594 1099.867188 545.277344 1044.242188 595.175781 C 1032.269531 605.914062 1011.367188 643.34375 1030.136719 654.992188 C 1087.066406 690.382812 1168.589844 666.113281 1209.195312 613.773438 Z M 1577.324219 988.144531 C 1654.507812 969.234375 1840.207031 940.191406 1879.089844 889.53125 C 1903.765625 857.375 1895.675781 811.292969 1878.535156 778.007812 C 1845.839844 774.796875 1812.113281 775.300781 1784.726562 793.121094 C 1754.609375 812.71875 1792.125 897.40625 1712.074219 899.636719 C 1678.550781 900.570312 1646.644531 907.832031 1617.152344 922.550781 C 1592.507812 935.960938 1573.464844 956.589844 1577.324219 988.144531 Z M 987.503906 952.527344 C 1008.144531 940.230469 1017.601562 921.699219 1017.898438 901.636719 C 1018.199219 881.25 1007.484375 865.09375 988.800781 849.945312 C 946.132812 815.34375 881.640625 814.707031 837.414062 848.867188 C 807.296875 872.117188 808.625 913.886719 836.597656 938.875 C 878.164062 976.015625 940.007812 980.847656 987.515625 952.527344 Z M 1295.527344 1032.167969 C 1239.613281 990.699219 1161.039062 1022.183594 1141.625 1083.25 C 1195.339844 1070.449219 1243.808594 1053.933594 1295.527344 1032.167969 Z M 1295.527344 1032.167969 " fill-opacity="1" fill-rule="nonzero"/></g><path fill="#ffffff" d="M 1524.242188 853.347656 C 1465.871094 904.441406 1379.757812 912.269531 1316.238281 874.011719 C 1289.460938 857.890625 1275.558594 830.109375 1274.382812 804.269531 C 1270.921875 728.425781 1406.316406 661.441406 1508.335938 719.4375 C 1531.457031 732.585938 1546.84375 755.632812 1550.128906 773.09375 C 1555.667969 802.578125 1549.375 831.355469 1524.253906 853.347656 Z M 1505.4375 819.957031 C 1526.902344 795.554688 1515.660156 763.960938 1492.109375 750.632812 C 1440.03125 721.152344 1373.621094 725.285156 1328.546875 764.476562 C 1314.679688 776.535156 1310.953125 795.148438 1312.75 811.519531 C 1317.925781 858.667969 1441.6875 892.433594 1505.4375 819.957031 Z M 1505.4375 819.957031 " fill-opacity="1" fill-rule="nonzero"/><path fill="#ffffff" d="M 1136.121094 763.375 C 1151.558594 763.960938 1180.921875 749.257812 1188.066406 770.648438 C 1160.8125 812.632812 1086.011719 797.796875 1065.828125 750.789062 C 1092.867188 733.449219 1109.046875 762.34375 1136.121094 763.375 Z M 1136.121094 763.375 " fill-opacity="1" fill-rule="nonzero"/><path fill="#ffffff" d="M 1203.585938 883.597656 C 1140.832031 904.742188 1162.789062 937.890625 1140.03125 945.023438 C 1133.75 946.988281 1126.402344 940.050781 1126.488281 929.417969 C 1126.941406 870.8125 1194.671875 846 1208.25 862.371094 C 1211.355469 866.125 1210.945312 881.128906 1203.574219 883.609375 Z M 1203.585938 883.597656 " fill-opacity="1" fill-rule="nonzero"/><path fill="#ffffff" d="M 1396.429688 629.632812 C 1344.390625 616.484375 1321.089844 651.398438 1310.914062 632.386719 C 1308.914062 628.660156 1308.972656 619.707031 1315.671875 614.410156 C 1359.71875 579.558594 1417.429688 594.503906 1416.53125 618.183594 C 1416.207031 626.625 1406.773438 632.246094 1396.441406 629.632812 Z M 1396.429688 629.632812 " fill-opacity="1" fill-rule="nonzero"/><path fill="#ffffff" d="M 871.621094 1040.785156 C 857.476562 1074.957031 791.65625 1058.414062 775.152344 1030.503906 C 754.117188 994.917969 850.921875 1027.457031 871.621094 1040.785156 Z M 871.621094 1040.785156 " fill-opacity="1" fill-rule="nonzero"/></svg>