<svg xmlns="http://www.w3.org/2000/svg" xmlns:xlink="http://www.w3.org/1999/xlink" width="3456" zoomAndPan="magnify" viewBox="0 0 2592 1727.999927" height="2304" preserveAspectRatio="xMidYMid meet" version="1.0"><defs><clipPath id="8d81f23017"><path d="M 60 113 L 2379 113 L 2379 1648 L 60 1648 Z M 60 113 " clip-rule="nonzero"/></clipPath><clipPath id="0047d28e02"><path d="M 131.476562 0 L 2465.195312 200.503906 L 2333.921875 1728.464844 L 0.199219 1527.960938 Z M 131.476562 0 " clip-rule="nonzero"/></clipPath><clipPath id="ce8366894d"><path d="M 1453.445312 113.578125 C 1478.984375 115.773438 1504.675781 117.980469 1530.164062 120.171875 C 1731.179688 163.148438 1850.875 259.011719 1896.777344 402.984375 C 2237.152344 413.554688 2460.882812 697.554688 2288.609375 942.621094 C 2333.871094 1001.113281 2370.304688 1065.328125 2378.351562 1148 C 2376.347656 1171.3125 2374.351562 1194.570312 2372.347656 1217.878906 C 2309.734375 1421.15625 2104.847656 1544.546875 1791.457031 1479.664062 C 1700.855469 1579.015625 1546.746094 1673.0625 1322.3125 1640.417969 C 1206.320312 1623.421875 1128.679688 1576.011719 1061.882812 1520.777344 C 983.574219 1555.191406 899.808594 1580.28125 782.730469 1570.578125 C 511.882812 1547.917969 344.25 1375.015625 358.402344 1158.820312 C 188.65625 1093.375 78.84375 989.003906 60.597656 824.984375 C 62.601562 801.675781 64.605469 778.3125 66.601562 755.105469 C 115.761719 598.347656 235.886719 507.550781 425.183594 480.953125 C 437.191406 210.425781 823 73.886719 1117.863281 218.855469 C 1195.539062 166.371094 1303.804688 111.148438 1453.445312 113.578125 Z M 1453.445312 113.578125 " clip-rule="nonzero"/></clipPath><clipPath id="c6c207e81b"><path d="M 0.480469 0 L 2319 0 L 2319 1535 L 0.480469 1535 Z M 0.480469 0 " clip-rule="nonzero"/></clipPath><clipPath id="b75444af92"><path d="M 71.476562 -113 L 2405.195312 87.503906 L 2273.921875 1615.464844 L -59.800781 1414.960938 Z M 71.476562 -113 " clip-rule="nonzero"/></clipPath><clipPath id="1b33073fe2"><path d="M 1393.445312 0.578125 C 1418.984375 2.773438 1444.675781 4.980469 1470.164062 7.171875 C 1671.179688 50.148438 1790.875 146.011719 1836.777344 289.984375 C 2177.152344 300.554688 2400.882812 584.554688 2228.609375 829.621094 C 2273.871094 888.113281 2310.304688 952.328125 2318.351562 1035 C 2316.347656 1058.3125 2314.351562 1081.570312 2312.347656 1104.878906 C 2249.734375 1308.15625 2044.847656 1431.546875 1731.457031 1366.664062 C 1640.855469 1466.015625 1486.746094 1560.0625 1262.3125 1527.417969 C 1146.320312 1510.421875 1068.679688 1463.011719 1001.882812 1407.777344 C 923.574219 1442.191406 839.808594 1467.28125 722.730469 1457.578125 C 451.882812 1434.917969 284.25 1262.015625 298.402344 1045.820312 C 128.65625 980.375 18.84375 876.003906 0.597656 711.984375 C 2.601562 688.675781 4.605469 665.3125 6.601562 642.105469 C 55.761719 485.347656 175.886719 394.550781 365.183594 367.953125 C 377.191406 97.425781 763 -39.113281 1057.863281 105.855469 C 1135.539062 53.371094 1243.804688 -1.851562 1393.445312 0.578125 Z M 1393.445312 0.578125 " clip-rule="nonzero"/></clipPath><clipPath id="64b92ca940"><rect x="0" width="2319" y="0" height="1535"/></clipPath><clipPath id="32b7a37e76"><path d="M 703.371094 349.238281 L 1762.292969 349.238281 L 1762.292969 1400.625 L 703.371094 1400.625 Z M 703.371094 349.238281 " clip-rule="nonzero"/></clipPath><clipPath id="88e494b398"><path d="M 1397 349.238281 L 1762.292969 349.238281 L 1762.292969 727 L 1397 727 Z M 1397 349.238281 " clip-rule="nonzero"/></clipPath><clipPath id="1b37272b07"><path d="M 703.371094 349.238281 L 1762 349.238281 L 1762 1400.625 L 703.371094 1400.625 Z M 703.371094 349.238281 " clip-rule="nonzero"/></clipPath><clipPath id="d0d0c1f4b1"><rect x="0" width="2466" y="0" height="1728"/></clipPath></defs><g transform="matrix(1, 0, 0, 1, 66, 0)"><g clip-path="url(#d0d0c1f4b1)"><g clip-path="url(#8d81f23017)"><g clip-path="url(#0047d28e02)"><g clip-path="url(#ce8366894d)"><g transform="matrix(1, 0, 0, 1, 60, 113)"><g clip-path="url(#64b92ca940)"><g clip-path="url(#c6c207e81b)"><g clip-path="url(#b75444af92)"><g clip-path="url(#1b33073fe2)"><path fill="#000000" d="M 71.476562 -113 L 2399.226562 86.992188 L 2267.953125 1614.953125 L -59.800781 1414.960938 Z M 71.476562 -113 " fill-opacity="1" fill-rule="nonzero"/></g></g></g></g></g></g></g></g><g clip-path="url(#32b7a37e76)"><path stroke-linecap="butt" transform="matrix(3.768405, 0, 0, 3.768405, 703.370318, 349.238438)" fill="none" stroke-linejoin="miter" d="M 0.142217 273.397739 C 0.0126447 279.740568 6.526509 279.406789 10.82313 278.758927 C 15.724077 278.017773 20.47161 277.163632 25.063656 276.195467 C 48.447847 271.257203 72.707948 265.275104 97.844996 258.250206 C 99.464132 257.799294 100.621991 257.290334 101.317536 256.721252 C 109.896266 249.711903 118.23451 242.406092 126.942812 234.165287 C 143.399544 218.593793 159.545303 202.768338 175.379051 186.687884 C 194.355708 167.414765 212.769502 147.554943 230.622507 127.106344 C 234.570837 122.580639 239.79727 116.544638 246.302841 108.994195 C 248.019416 106.999816 249.758796 105.318485 251.519944 103.948127 C 252.529573 103.161363 253.677066 101.9807 254.076149 101.248875 C 254.971753 99.614189 256.106808 98.167124 257.484422 96.91079 C 263.006279 91.870942 268.030579 86.518047 272.558357 80.855214 C 277.54534 74.619153 281.151599 67.387976 280.841662 59.382475 C 280.613615 53.502997 278.02113 47.54474 274.780783 42.183552 C 272.934635 39.127716 271.169341 36.536268 269.4849 34.410244 C 262.48488 25.591027 254.639011 17.544062 245.946258 10.265203 C 241.501406 6.542847 236.789117 3.398902 231.978352 1.635681 C 222.746577 -1.753934 213.366572 1.033428 205.411862 6.765711 C 198.980925 11.40544 193.388579 16.418337 186.304597 22.683422 C 182.55218 26.001513 179.949329 28.389791 178.499155 29.849295 C 142.017784 66.484079 123.363504 85.216103 122.539423 86.045367 C 98.532248 110.177968 74.34678 133.663745 49.981985 156.504769 C 46.323896 159.933773 42.514468 163.558691 38.551625 167.379522 C 31.832518 173.859179 28.064553 177.52245 27.249801 178.371408 C 25.074022 180.639444 23.655981 181.978704 23.148057 183.96479 C 16.452792 210.015063 6.647789 243.18249 1.345686 266.243269 C 0.571361 269.617335 0.170205 272.002503 0.142217 273.397739 " stroke="#818282" stroke-width="2" stroke-opacity="1" stroke-miterlimit="4"/></g><g clip-path="url(#88e494b398)"><path stroke-linecap="butt" transform="matrix(3.768405, 0, 0, 3.768405, 703.370318, 349.238438)" fill="none" stroke-linejoin="miter" d="M 195.505274 25.51432 C 199.829883 28.567046 203.305533 31.036178 205.931188 32.921716 C 226.463751 47.675349 242.530729 66.31408 254.132124 88.835838 C 254.158039 88.880411 254.214014 88.895959 254.258587 88.872118 C 254.265843 88.867972 254.271026 88.863826 254.277245 88.859679 C 259.153314 84.365072 263.468594 79.610282 267.222047 74.591166 C 272.676527 67.294684 274.532004 59.683083 270.435443 51.140633 C 268.151859 46.383771 265.349985 41.974163 262.031895 37.908699 C 256.815828 31.520261 250.995435 25.459382 244.57279 19.728135 C 240.105134 15.742488 235.816805 12.24196 230.464946 9.653621 C 220.547993 4.852186 211.057073 11.973486 203.46413 18.236497 C 200.642561 20.563618 197.982699 22.871043 195.481433 25.157737 C 195.388141 25.2417 195.381921 25.385785 195.467957 25.480113 C 195.47936 25.492552 195.491799 25.503955 195.505274 25.51432 " stroke="#818282" stroke-width="2" stroke-opacity="1" stroke-miterlimit="4"/></g><path stroke-linecap="butt" transform="matrix(3.768405, 0, 0, 3.768405, 703.370318, 349.238438)" fill="none" stroke-linejoin="miter" d="M 182.356266 37.999918 C 189.020434 41.717091 195.309361 46.127736 201.222009 51.231852 C 213.988519 62.254836 224.690163 74.73214 233.330052 88.668949 C 235.543148 92.239964 238.075511 96.872437 240.927141 102.567403 C 240.985189 102.681427 241.124091 102.72911 241.237078 102.671061 C 241.264029 102.658622 241.286834 102.639964 241.306529 102.618196 L 245.592784 97.890358 C 245.674674 97.800175 245.694369 97.672676 245.643577 97.565908 C 242.9153 91.85332 239.734038 86.40195 236.101865 81.213871 C 222.958039 62.468371 206.698257 44.856889 186.744106 33.454518 C 186.630083 33.388177 186.485998 33.407872 186.391669 33.500127 L 182.299254 37.593579 C 182.19767 37.6962 182.199743 37.858943 182.300291 37.959491 C 182.318949 37.97504 182.336571 37.989552 182.356266 37.999918 " stroke="#818282" stroke-width="2" stroke-opacity="1" stroke-miterlimit="4"/><path stroke-linecap="butt" transform="matrix(3.768405, 0, 0, 3.768405, 703.370318, 349.238438)" fill="none" stroke-linejoin="miter" d="M 50.573871 198.495558 C 58.060047 191.612672 64.253608 185.795389 69.157664 181.042673 C 111.359916 140.133036 154.24942 97.855114 197.828248 54.208908 C 197.902882 54.134274 197.899772 54.012994 197.823066 53.934214 C 197.819956 53.931104 197.816846 53.927995 197.814773 53.925921 C 192.0431 48.913024 185.759356 44.593598 178.961469 40.966608 C 178.878543 40.923071 178.779031 40.93862 178.7158 41.002888 C 177.835744 41.910931 176.965018 42.795133 176.104657 43.655494 C 140.963583 78.819372 123.356248 96.43811 123.284724 96.511707 C 109.172734 110.604002 98.528101 121.101441 91.348753 128.002985 C 82.2621 136.740312 68.38023 149.982612 49.704181 167.726776 C 45.582742 171.644009 40.771978 176.309652 35.267742 181.726815 C 35.224206 181.770352 35.226279 181.840839 35.269815 181.884375 C 35.279144 181.894741 35.291583 181.903034 35.305059 181.908217 C 42.002398 184.646859 46.712614 189.415124 49.434671 196.214047 C 49.622292 196.689837 49.914607 197.428918 50.309544 198.435437 C 50.339605 198.519399 50.433933 198.561899 50.517896 198.530802 C 50.539664 198.522509 50.559359 198.511107 50.573871 198.495558 " stroke="#818282" stroke-width="2" stroke-opacity="1" stroke-miterlimit="4"/><path stroke-linecap="butt" transform="matrix(3.768405, 0, 0, 3.768405, 703.370318, 349.238438)" fill="none" stroke-linejoin="miter" d="M 55.519391 200.231828 C 65.881037 201.918343 74.607998 209.556895 78.964741 218.825987 C 80.261502 221.581215 81.187167 225.210279 81.26491 228.377029 C 81.26491 228.446479 81.321922 228.502455 81.390336 228.502455 C 81.418324 228.502455 81.446312 228.492089 81.469116 228.474467 C 96.56171 216.733134 111.201319 203.848453 125.859587 190.29207 C 145.613678 172.032726 164.999783 152.953448 184.018939 133.055273 C 199.646408 116.705308 213.002732 102.321734 224.089984 89.905588 C 224.574067 89.36242 225.451013 88.287487 226.719786 86.678716 C 226.800639 86.576095 226.804785 86.432011 226.730151 86.322133 C 219.403609 75.615306 210.937866 65.9264 201.336033 57.256451 C 201.230302 57.157976 201.065485 57.162122 200.960791 57.26578 C 155.279779 102.698012 105.878485 151.584127 65.359638 190.673531 C 60.998749 194.87997 57.696208 197.989707 55.452013 199.997561 C 55.396038 200.045244 55.389819 200.13128 55.440611 200.188292 C 55.460306 200.211097 55.488294 200.226645 55.519391 200.231828 " stroke="#818282" stroke-width="2" stroke-opacity="1" stroke-miterlimit="4"/><path stroke-linecap="butt" transform="matrix(3.768405, 0, 0, 3.768405, 703.370318, 349.238438)" fill="none" stroke-linejoin="miter" d="M 85.0619 231.501278 C 92.879781 233.689497 98.209871 238.580078 101.049062 246.173021 C 101.091562 246.288082 101.219061 246.347167 101.334121 246.305703 C 101.357963 246.297411 101.380767 246.282899 101.400462 246.266313 C 114.83142 234.871198 126.817386 223.539313 139.901089 210.815303 C 154.342712 196.765507 168.168606 182.850467 181.378772 169.068109 C 200.816706 148.790546 219.538364 127.98329 237.541673 106.648416 C 237.667099 106.497075 237.695087 106.288723 237.616307 106.107322 C 235.314064 100.899547 232.590971 95.740492 229.449099 90.624974 C 229.378611 90.508877 229.227271 90.472597 229.109101 90.544121 C 229.086296 90.556559 229.066601 90.573145 229.050016 90.59284 C 224.763761 95.553908 219.774705 101.132778 214.085958 107.329449 C 191.644017 131.771988 169.305733 154.729108 147.070072 176.202884 C 138.042503 184.921553 129.154872 193.242174 120.40718 201.16164 C 109.438098 211.100362 97.638716 221.134449 85.009035 231.264938 C 84.94995 231.310548 84.939584 231.394511 84.98623 231.452559 C 85.005925 231.477437 85.032876 231.495059 85.0619 231.501278 " stroke="#818282" stroke-width="2" stroke-opacity="1" stroke-miterlimit="4"/><path stroke-linecap="butt" transform="matrix(3.768405, 0, 0, 3.768405, 703.370318, 349.238438)" fill="none" stroke-linejoin="miter" d="M 15.248287 244.553885 C 15.20786 244.704189 15.298043 244.859675 15.45042 244.902175 C 15.456639 244.903212 15.460785 244.904248 15.465968 244.906321 C 23.78348 246.676799 30.109724 251.237748 34.444698 258.587095 C 35.620179 260.581473 36.44115 262.74896 36.90761 265.090593 C 36.936635 265.236751 37.078646 265.331079 37.223767 265.302055 C 37.22584 265.302055 37.22895 265.299982 37.229987 265.299982 C 55.77439 261.240737 74.366475 256.537777 93.009353 251.187992 C 93.298559 251.102992 93.476851 250.817933 93.426058 250.525618 C 92.338687 244.178643 87.939444 240.26141 81.703383 239.084892 C 79.022789 238.580078 73.707211 239.141904 73.022032 234.867051 C 72.780509 233.390962 73.171299 231.251463 73.171299 229.765008 C 73.160934 224.645343 70.632717 219.329765 67.15603 215.663384 C 62.45307 210.704389 56.855542 207.691053 49.867961 208.293305 C 48.257117 208.429097 47.352183 208.488182 47.151087 208.468487 C 43.706534 208.135745 43.155074 206.112343 42.64093 202.898947 C 41.628192 196.556118 37.182304 190.138656 30.401002 189.486648 C 30.248625 189.471099 30.10765 189.567501 30.06826 189.717805 L 15.248287 244.553885 " stroke="#818282" stroke-width="2" stroke-opacity="1" stroke-miterlimit="4"/><path stroke-linecap="butt" transform="matrix(3.768405, 0, 0, 3.768405, 703.370318, 349.238438)" fill="none" stroke-linejoin="miter" d="M 257.284362 62.603126 C 256.180405 63.956899 254.734377 65.349025 252.946278 66.778468 C 251.696163 67.782913 251.598725 69.495342 253.219934 70.001193 C 255.187362 70.616921 259.016486 66.260178 260.113187 64.908479 C 261.21507 63.560926 264.715599 58.936746 263.714263 57.135171 C 262.895365 55.648716 261.237875 56.090299 260.50605 57.510413 C 259.463251 59.551437 258.389355 61.248317 257.284362 62.603126 " stroke="#818282" stroke-width="2" stroke-opacity="1" stroke-miterlimit="4"/><path stroke-linecap="butt" transform="matrix(3.768405, 0, 0, 3.768405, 703.370318, 349.238438)" fill="none" stroke-linejoin="miter" d="M 261.252387 67.769438 C 259.947334 69.408269 258.400758 70.759969 257.173448 72.061912 C 256.736011 72.527336 256.616805 73.057028 256.817901 73.648915 C 258.118808 77.514319 263.067437 71.209844 264.040785 69.986681 C 265.013097 68.764554 270.055018 62.532639 265.997847 62.125263 C 265.374863 62.064105 264.883524 62.298372 264.525905 62.829101 C 263.534935 64.316592 262.562623 66.125423 261.252387 67.769438 " stroke="#818282" stroke-width="2" stroke-opacity="1" stroke-miterlimit="4"/><g clip-path="url(#1b37272b07)"><path fill="#ffffff" d="M 744.15625 1399.710938 C 727.964844 1402.15625 703.417969 1403.410156 703.90625 1379.503906 C 704.011719 1374.25 705.523438 1365.261719 708.441406 1352.550781 C 728.421875 1265.648438 765.371094 1140.660156 790.601562 1042.484375 C 792.523438 1035 797.859375 1029.960938 806.058594 1021.410156 C 809.128906 1018.207031 823.320312 1004.402344 848.648438 979.988281 C 863.582031 965.589844 877.9375 951.929688 891.722656 939.007812 C 983.539062 852.933594 1074.679688 764.425781 1165.148438 673.480469 C 1168.253906 670.351562 1238.550781 599.765625 1376.027344 461.714844 C 1381.496094 456.214844 1391.300781 447.210938 1405.441406 434.707031 C 1432.136719 411.101562 1453.210938 392.207031 1477.445312 374.726562 C 1507.421875 353.125 1542.769531 342.625 1577.558594 355.394531 C 1595.683594 362.042969 1613.445312 373.882812 1630.195312 387.910156 C 1662.949219 415.335938 1692.515625 445.664062 1718.898438 478.898438 C 1725.25 486.910156 1731.898438 496.675781 1738.855469 508.191406 C 1751.066406 528.394531 1760.835938 550.847656 1761.695312 573.007812 C 1762.863281 603.171875 1749.269531 630.421875 1730.480469 653.921875 C 1713.417969 675.265625 1694.484375 695.433594 1673.675781 714.425781 C 1668.484375 719.160156 1664.207031 724.609375 1660.832031 730.777344 C 1659.332031 733.53125 1655.003906 737.980469 1651.199219 740.949219 C 1644.558594 746.109375 1638.003906 752.453125 1631.539062 759.960938 C 1607.019531 788.414062 1587.320312 811.164062 1572.449219 828.214844 C 1505.171875 905.269531 1435.78125 980.113281 1364.269531 1052.742188 C 1304.601562 1113.34375 1243.757812 1172.980469 1181.742188 1231.660156 C 1148.925781 1262.710938 1117.503906 1290.242188 1085.175781 1316.65625 C 1082.554688 1318.800781 1078.199219 1320.714844 1072.089844 1322.417969 C 977.363281 1348.890625 885.941406 1371.433594 797.820312 1390.042969 C 780.515625 1393.695312 762.625 1396.917969 744.15625 1399.710938 Z M 1440.113281 445.386719 C 1456.410156 456.890625 1469.507812 466.195312 1479.402344 473.300781 C 1556.777344 528.898438 1617.324219 599.136719 1661.042969 684.007812 C 1661.140625 684.175781 1661.351562 684.234375 1661.519531 684.144531 C 1661.546875 684.128906 1661.566406 684.113281 1661.589844 684.097656 C 1679.964844 667.160156 1696.226562 649.242188 1710.371094 630.328125 C 1730.925781 602.832031 1737.917969 574.148438 1722.480469 541.957031 C 1713.875 524.03125 1703.316406 507.414062 1690.8125 492.09375 C 1671.15625 468.019531 1649.222656 445.179688 1625.019531 423.582031 C 1608.183594 408.5625 1592.023438 395.371094 1571.855469 385.617188 C 1534.488281 367.523438 1498.71875 394.359375 1470.105469 417.960938 C 1459.472656 426.730469 1449.449219 435.425781 1440.023438 444.042969 C 1439.671875 444.359375 1439.648438 444.902344 1439.972656 445.257812 C 1440.015625 445.304688 1440.0625 445.347656 1440.113281 445.386719 Z M 1390.5625 492.4375 C 1415.675781 506.445312 1439.375 523.066406 1461.65625 542.300781 C 1509.765625 583.839844 1550.09375 630.859375 1582.652344 683.378906 C 1590.992188 696.835938 1600.535156 714.292969 1611.28125 735.753906 C 1611.5 736.183594 1612.023438 736.363281 1612.449219 736.144531 C 1612.550781 736.097656 1612.636719 736.027344 1612.710938 735.945312 L 1628.863281 718.128906 C 1629.171875 717.789062 1629.246094 717.308594 1629.054688 716.90625 C 1618.773438 695.378906 1606.785156 674.835938 1593.097656 655.285156 C 1543.566406 584.644531 1482.292969 518.277344 1407.097656 475.308594 C 1406.667969 475.058594 1406.125 475.132812 1405.769531 475.480469 L 1390.347656 490.90625 C 1389.964844 491.292969 1389.972656 491.90625 1390.351562 492.285156 C 1390.421875 492.34375 1390.488281 492.398438 1390.5625 492.4375 Z M 893.953125 1097.25 C 922.164062 1071.3125 945.503906 1049.390625 963.984375 1031.480469 C 1123.019531 877.316406 1284.644531 717.996094 1448.867188 553.519531 C 1449.148438 553.238281 1449.136719 552.78125 1448.847656 552.484375 C 1448.835938 552.472656 1448.824219 552.460938 1448.816406 552.453125 C 1427.066406 533.5625 1403.386719 517.285156 1377.769531 503.617188 C 1377.457031 503.453125 1377.082031 503.511719 1376.84375 503.753906 C 1373.527344 507.175781 1370.246094 510.507812 1367.003906 513.75 C 1234.578125 646.261719 1168.226562 712.65625 1167.957031 712.933594 C 1114.777344 766.039062 1074.664062 805.597656 1047.609375 831.605469 C 1013.367188 864.53125 961.054688 914.433594 890.675781 981.300781 C 875.144531 996.0625 857.015625 1013.644531 836.273438 1034.058594 C 836.109375 1034.222656 836.117188 1034.488281 836.28125 1034.652344 C 836.316406 1034.691406 836.363281 1034.722656 836.414062 1034.742188 C 861.652344 1045.0625 879.402344 1063.03125 889.660156 1088.652344 C 890.367188 1090.445312 891.46875 1093.230469 892.957031 1097.023438 C 893.070312 1097.34375 893.425781 1097.5 893.742188 1097.382812 C 893.824219 1097.351562 893.898438 1097.308594 893.953125 1097.25 Z M 912.589844 1103.792969 C 951.636719 1110.148438 984.523438 1138.933594 1000.941406 1173.863281 C 1005.828125 1184.246094 1009.316406 1197.921875 1009.609375 1209.855469 C 1009.609375 1210.117188 1009.824219 1210.328125 1010.082031 1210.328125 C 1010.1875 1210.328125 1010.292969 1210.289062 1010.378906 1210.222656 C 1067.253906 1165.976562 1122.421875 1117.421875 1177.660156 1066.335938 C 1252.101562 997.527344 1325.15625 925.628906 1396.828125 850.644531 C 1455.71875 789.03125 1506.050781 734.828125 1547.832031 688.039062 C 1549.65625 685.992188 1552.960938 681.941406 1557.742188 675.878906 C 1558.046875 675.492188 1558.0625 674.949219 1557.78125 674.535156 C 1530.171875 634.1875 1498.269531 597.675781 1462.085938 565.003906 C 1461.6875 564.632812 1461.066406 564.648438 1460.675781 565.039062 C 1288.527344 736.246094 1102.363281 920.46875 949.671875 1067.773438 C 933.238281 1083.625 920.792969 1095.34375 912.335938 1102.910156 C 912.125 1103.089844 912.101562 1103.414062 912.292969 1103.628906 C 912.367188 1103.714844 912.472656 1103.773438 912.589844 1103.792969 Z M 1023.917969 1221.628906 C 1053.378906 1229.875 1073.464844 1248.304688 1084.164062 1276.917969 C 1084.324219 1277.351562 1084.804688 1277.574219 1085.238281 1277.417969 C 1085.328125 1277.386719 1085.414062 1277.332031 1085.488281 1277.269531 C 1136.101562 1234.328125 1181.269531 1191.625 1230.574219 1143.675781 C 1284.996094 1090.730469 1337.097656 1038.292969 1386.878906 986.355469 C 1460.128906 909.941406 1530.679688 831.53125 1598.523438 751.136719 C 1598.996094 750.5625 1599.101562 749.777344 1598.804688 749.09375 C 1590.128906 729.46875 1579.867188 710.027344 1568.027344 690.75 C 1567.761719 690.3125 1567.191406 690.175781 1566.746094 690.445312 C 1566.660156 690.492188 1566.585938 690.554688 1566.523438 690.628906 C 1550.371094 709.324219 1531.570312 730.347656 1510.132812 753.699219 C 1425.5625 845.808594 1341.382812 932.320312 1257.589844 1013.242188 C 1223.570312 1046.097656 1190.078125 1077.453125 1157.113281 1107.296875 C 1115.777344 1144.75 1071.3125 1182.5625 1023.71875 1220.738281 C 1023.496094 1220.910156 1023.457031 1221.226562 1023.632812 1221.445312 C 1023.707031 1221.539062 1023.808594 1221.605469 1023.917969 1221.628906 Z M 760.832031 1270.816406 C 760.679688 1271.382812 761.019531 1271.96875 761.59375 1272.128906 C 761.617188 1272.132812 761.632812 1272.136719 761.652344 1272.144531 C 792.996094 1278.816406 816.835938 1296.003906 833.171875 1323.699219 C 837.601562 1331.214844 840.695312 1339.382812 842.453125 1348.207031 C 842.5625 1348.757812 843.097656 1349.113281 843.644531 1349.003906 C 843.652344 1349.003906 843.664062 1348.996094 843.667969 1348.996094 C 913.550781 1333.699219 983.613281 1315.976562 1053.867188 1295.816406 C 1054.957031 1295.496094 1055.628906 1294.421875 1055.4375 1293.320312 C 1051.339844 1269.402344 1034.761719 1254.640625 1011.261719 1250.207031 C 1001.160156 1248.304688 981.128906 1250.421875 978.546875 1234.3125 C 977.636719 1228.75 979.109375 1220.6875 979.109375 1215.085938 C 979.070312 1195.792969 969.542969 1175.761719 956.441406 1161.945312 C 938.71875 1143.257812 917.625 1131.902344 891.292969 1134.171875 C 885.222656 1134.683594 881.8125 1134.90625 881.054688 1134.832031 C 868.074219 1133.578125 865.996094 1125.953125 864.058594 1113.84375 C 860.242188 1089.941406 843.488281 1065.757812 817.933594 1063.300781 C 817.359375 1063.242188 816.828125 1063.605469 816.679688 1064.171875 Z M 760.832031 1270.816406 " fill-opacity="1" fill-rule="nonzero"/></g><path fill="#ffffff" d="M 1683.582031 593.839844 C 1679.445312 598.933594 1665.015625 615.351562 1657.605469 613.03125 C 1651.5 611.125 1651.867188 604.671875 1656.574219 600.886719 C 1663.308594 595.5 1668.753906 590.253906 1672.921875 585.152344 C 1677.085938 580.046875 1681.136719 573.644531 1685.066406 565.960938 C 1687.824219 560.601562 1694.070312 558.949219 1697.160156 564.546875 C 1700.925781 571.335938 1687.734375 588.761719 1683.582031 593.839844 Z M 1683.582031 593.839844 " fill-opacity="1" fill-rule="nonzero"/><path fill="#ffffff" d="M 1698.375 612.976562 C 1694.710938 617.585938 1676.058594 641.34375 1671.15625 626.777344 C 1670.402344 624.546875 1670.851562 622.550781 1672.5 620.796875 C 1677.125 615.890625 1682.953125 610.796875 1687.871094 604.621094 C 1692.804688 598.425781 1696.472656 591.605469 1700.207031 586.003906 C 1701.554688 584.003906 1703.40625 583.121094 1705.753906 583.351562 C 1721.039062 584.890625 1702.042969 608.375 1698.375 612.976562 Z M 1698.375 612.976562 " fill-opacity="1" fill-rule="nonzero"/></g></g></svg>