<svg xmlns="http://www.w3.org/2000/svg" xmlns:xlink="http://www.w3.org/1999/xlink" width="3456" zoomAndPan="magnify" viewBox="0 0 2592 1727.999927" height="2304" preserveAspectRatio="xMidYMid meet" version="1.0"><defs><clipPath id="6dee877dd6"><path d="M 82.632812 629.71875 L 2526 629.71875 L 2526 1728 L 82.632812 1728 Z M 82.632812 629.71875 " clip-rule="nonzero"/></clipPath><clipPath id="eeac7f1614"><path d="M 1303.832031 629.71875 C 629.382812 629.71875 82.632812 1044.070312 82.632812 1555.199219 C 82.632812 2066.328125 629.382812 2480.679688 1303.832031 2480.679688 C 1978.285156 2480.679688 2525.035156 2066.328125 2525.035156 1555.199219 C 2525.035156 1044.070312 1978.285156 629.71875 1303.832031 629.71875 Z M 1303.832031 629.71875 " clip-rule="nonzero"/></clipPath><clipPath id="7fb3dab3f5"><path d="M 0.632812 0.71875 L 2443.039062 0.71875 L 2443.039062 1099 L 0.632812 1099 Z M 0.632812 0.71875 " clip-rule="nonzero"/></clipPath><clipPath id="e4840bcc75"><path d="M 1221.832031 0.71875 C 547.382812 0.71875 0.632812 415.070312 0.632812 926.199219 C 0.632812 1437.328125 547.382812 1851.679688 1221.832031 1851.679688 C 1896.285156 1851.679688 2443.035156 1437.328125 2443.035156 926.199219 C 2443.035156 415.070312 1896.285156 0.71875 1221.832031 0.71875 Z M 1221.832031 0.71875 " clip-rule="nonzero"/></clipPath><clipPath id="04a16d8e14"><rect x="0" width="2444" y="0" height="1099"/></clipPath><clipPath id="05399e5a1d"><path d="M 516 696 L 689 696 L 689 865 L 516 865 Z M 516 696 " clip-rule="nonzero"/></clipPath><clipPath id="e37b6fc9a8"><path d="M 479.710938 753.679688 L 635.214844 678.296875 L 689.121094 789.496094 L 533.617188 864.878906 Z M 479.710938 753.679688 " clip-rule="nonzero"/></clipPath><clipPath id="2342d77752"><path d="M 516.777344 735.710938 L 597.800781 696.4375 L 688.769531 789.667969 L 533.617188 864.878906 Z M 516.777344 735.710938 " clip-rule="nonzero"/></clipPath><clipPath id="19f4a74627"><path d="M 0.71875 0.238281 L 172.800781 0.238281 L 172.800781 168.960938 L 0.71875 168.960938 Z M 0.71875 0.238281 " clip-rule="nonzero"/></clipPath><clipPath id="ed64b4b81f"><path d="M -36.289062 57.679688 L 119.214844 -17.703125 L 173.121094 93.496094 L 17.617188 168.878906 Z M -36.289062 57.679688 " clip-rule="nonzero"/></clipPath><clipPath id="9762ad7a91"><path d="M 0.777344 39.710938 L 81.800781 0.4375 L 172.769531 93.667969 L 17.617188 168.878906 Z M 0.777344 39.710938 " clip-rule="nonzero"/></clipPath><clipPath id="9bf80a0b01"><rect x="0" width="173" y="0" height="169"/></clipPath><clipPath id="08be3c3aaa"><path d="M 1919 693 L 2095 693 L 2095 866 L 1919 866 Z M 1919 693 " clip-rule="nonzero"/></clipPath><clipPath id="0d764c965d"><path d="M 1978.910156 674.144531 L 2130.816406 756.539062 L 2071.898438 865.164062 L 1919.992188 782.769531 Z M 1978.910156 674.144531 " clip-rule="nonzero"/></clipPath><clipPath id="fde137085e"><path d="M 2015.117188 693.785156 L 2094.480469 736.828125 L 2071.769531 865.09375 L 1919.992188 782.769531 Z M 2015.117188 693.785156 " clip-rule="nonzero"/></clipPath><clipPath id="0d6d063d62"><path d="M 0.761719 0.601562 L 175.480469 0.601562 L 175.480469 172.199219 L 0.761719 172.199219 Z M 0.761719 0.601562 " clip-rule="nonzero"/></clipPath><clipPath id="2fe46e9c76"><path d="M 59.910156 -18.855469 L 211.816406 63.539062 L 152.898438 172.164062 L 0.992188 89.769531 Z M 59.910156 -18.855469 " clip-rule="nonzero"/></clipPath><clipPath id="fc053ce54c"><path d="M 96.117188 0.785156 L 175.480469 43.828125 L 152.769531 172.09375 L 0.992188 89.769531 Z M 96.117188 0.785156 " clip-rule="nonzero"/></clipPath><clipPath id="fad6ecdc1f"><rect x="0" width="176" y="0" height="173"/></clipPath><clipPath id="43ebb24609"><path d="M 2324 1231 L 2582 1231 L 2582 1376 L 2324 1376 Z M 2324 1231 " clip-rule="nonzero"/></clipPath><clipPath id="e8f33a7ad2"><path d="M 2325.464844 1377.890625 L 2322.71875 1233.804688 L 2579.933594 1228.898438 L 2582.679688 1372.984375 Z M 2325.464844 1377.890625 " clip-rule="nonzero"/></clipPath><clipPath id="44ae3d4734"><path d="M 2324.089844 1305.847656 C 2324.851562 1345.636719 2383.035156 1376.792969 2454.050781 1375.4375 C 2525.070312 1374.082031 2582.023438 1340.730469 2581.265625 1300.941406 C 2580.503906 1261.152344 2522.320312 1229.996094 2451.304688 1231.351562 C 2380.289062 1232.707031 2323.332031 1266.058594 2324.089844 1305.847656 Z M 2324.089844 1305.847656 " clip-rule="nonzero"/></clipPath><clipPath id="8c651d2e5a"><path d="M 0 0 L 258 0 L 258 145 L 0 145 Z M 0 0 " clip-rule="nonzero"/></clipPath><clipPath id="d797763548"><path d="M 1.464844 146.890625 L -1.28125 2.804688 L 255.933594 -2.101562 L 258.679688 141.984375 Z M 1.464844 146.890625 " clip-rule="nonzero"/></clipPath><clipPath id="2dade6097a"><path d="M 0.0898438 74.847656 C 0.851562 114.636719 59.035156 145.792969 130.050781 144.4375 C 201.070312 143.082031 258.023438 109.730469 257.265625 69.941406 C 256.503906 30.152344 198.320312 -1.003906 127.304688 0.351562 C 56.289062 1.707031 -0.667969 35.058594 0.0898438 74.847656 Z M 0.0898438 74.847656 " clip-rule="nonzero"/></clipPath><clipPath id="81148c0483"><rect x="0" width="258" y="0" height="145"/></clipPath><clipPath id="835981829a"><path d="M 2294 1086 L 2530 1086 L 2530 1270 L 2294 1270 Z M 2294 1086 " clip-rule="nonzero"/></clipPath><clipPath id="e7b50bab1c"><path d="M 2486.273438 1049.238281 L 2560.800781 1172.582031 L 2337.722656 1307.371094 L 2263.195312 1184.027344 Z M 2486.273438 1049.238281 " clip-rule="nonzero"/></clipPath><clipPath id="b2b6359724"><path d="M 2523.539062 1110.910156 C 2502.957031 1076.851562 2436.441406 1079.347656 2374.96875 1116.492188 C 2313.496094 1153.636719 2280.34375 1211.355469 2300.925781 1245.417969 C 2321.503906 1279.476562 2388.023438 1276.980469 2449.496094 1239.835938 C 2510.96875 1202.695312 2544.117188 1144.972656 2523.539062 1110.910156 Z M 2523.539062 1110.910156 " clip-rule="nonzero"/></clipPath><clipPath id="d241995da8"><path d="M 0 0 L 236 0 L 236 184 L 0 184 Z M 0 0 " clip-rule="nonzero"/></clipPath><clipPath id="76aa460ae7"><path d="M 192.273438 -36.761719 L 266.800781 86.582031 L 43.722656 221.371094 L -30.804688 98.027344 Z M 192.273438 -36.761719 " clip-rule="nonzero"/></clipPath><clipPath id="254fb0ab0f"><path d="M 229.539062 24.910156 C 208.957031 -9.148438 142.441406 -6.652344 80.96875 30.492188 C 19.496094 67.636719 -13.65625 125.355469 6.925781 159.417969 C 27.503906 193.476562 94.023438 190.980469 155.496094 153.835938 C 216.96875 116.695312 250.117188 58.972656 229.539062 24.910156 Z M 229.539062 24.910156 " clip-rule="nonzero"/></clipPath><clipPath id="2b48881f32"><rect x="0" width="236" y="0" height="184"/></clipPath><clipPath id="3757b01006"><path d="M 46 1073 L 288 1073 L 288 1247 L 46 1247 Z M 46 1073 " clip-rule="nonzero"/></clipPath><clipPath id="dc43db5bcf"><path d="M 315.375 1153.941406 L 250.828125 1282.789062 L 17.792969 1166.054688 L 82.339844 1037.203125 Z M 315.375 1153.941406 " clip-rule="nonzero"/></clipPath><clipPath id="d2367f99f7"><path d="M 282.597656 1218.113281 C 300.421875 1182.53125 262.914062 1127.660156 198.824219 1095.554688 C 134.734375 1063.449219 68.328125 1066.269531 50.503906 1101.847656 C 32.679688 1137.429688 70.1875 1192.300781 134.277344 1224.40625 C 198.367188 1256.511719 264.773438 1253.695312 282.597656 1218.113281 Z M 282.597656 1218.113281 " clip-rule="nonzero"/></clipPath><clipPath id="3d1db0d0e9"><path d="M 0 0 L 242 0 L 242 174 L 0 174 Z M 0 0 " clip-rule="nonzero"/></clipPath><clipPath id="13b253ee11"><path d="M 269.375 80.941406 L 204.828125 209.789062 L -28.207031 93.054688 L 36.339844 -35.796875 Z M 269.375 80.941406 " clip-rule="nonzero"/></clipPath><clipPath id="274d19545d"><path d="M 236.597656 145.113281 C 254.421875 109.53125 216.914062 54.660156 152.824219 22.554688 C 88.734375 -9.550781 22.328125 -6.730469 4.503906 28.847656 C -13.320312 64.429688 24.1875 119.300781 88.277344 151.40625 C 152.367188 183.511719 218.773438 180.695312 236.597656 145.113281 Z M 236.597656 145.113281 " clip-rule="nonzero"/></clipPath><clipPath id="fda495c146"><rect x="0" width="242" y="0" height="174"/></clipPath><clipPath id="7e93cce6bd"><path d="M 13 1216 L 271 1216 L 271 1362 L 13 1362 Z M 13 1216 " clip-rule="nonzero"/></clipPath><clipPath id="cffb580187"><path d="M 17.445312 1368.71875 L 8.800781 1224.867188 L 266.722656 1209.363281 L 275.367188 1353.214844 Z M 17.445312 1368.71875 " clip-rule="nonzero"/></clipPath><clipPath id="fa2bd98aab"><path d="M 13.683594 1296.761719 C 16.074219 1336.484375 75.53125 1365.230469 146.488281 1360.964844 C 217.445312 1356.699219 273.03125 1321.039062 270.640625 1281.3125 C 268.253906 1241.589844 208.796875 1212.847656 137.839844 1217.113281 C 66.882812 1221.378906 11.296875 1257.039062 13.683594 1296.761719 Z M 13.683594 1296.761719 " clip-rule="nonzero"/></clipPath><clipPath id="63c8cb181e"><path d="M 0 0 L 258 0 L 258 146 L 0 146 Z M 0 0 " clip-rule="nonzero"/></clipPath><clipPath id="44ec868819"><path d="M 4.445312 152.71875 L -4.199219 8.867188 L 253.722656 -6.636719 L 262.367188 137.214844 Z M 4.445312 152.71875 " clip-rule="nonzero"/></clipPath><clipPath id="7c32706634"><path d="M 0.683594 80.761719 C 3.074219 120.484375 62.53125 149.230469 133.488281 144.964844 C 204.445312 140.699219 260.03125 105.039062 257.640625 65.3125 C 255.253906 25.589844 195.796875 -3.152344 124.839844 1.113281 C 53.882812 5.378906 -1.703125 41.039062 0.683594 80.761719 Z M 0.683594 80.761719 " clip-rule="nonzero"/></clipPath><clipPath id="26edd90f15"><rect x="0" width="258" y="0" height="146"/></clipPath><clipPath id="705fb3264c"><path d="M 1384.761719 805.71875 L 1799.558594 805.71875 L 1799.558594 1344 L 1384.761719 1344 Z M 1384.761719 805.71875 " clip-rule="nonzero"/></clipPath><clipPath id="1a241a2459"><path d="M 1592.160156 805.71875 C 1477.617188 805.71875 1384.761719 926.160156 1384.761719 1074.738281 C 1384.761719 1223.316406 1477.617188 1343.761719 1592.160156 1343.761719 C 1706.703125 1343.761719 1799.558594 1223.316406 1799.558594 1074.738281 C 1799.558594 926.160156 1706.703125 805.71875 1592.160156 805.71875 Z M 1592.160156 805.71875 " clip-rule="nonzero"/></clipPath><clipPath id="b97490aa7f"><path d="M 0.761719 0.71875 L 415.558594 0.71875 L 415.558594 539 L 0.761719 539 Z M 0.761719 0.71875 " clip-rule="nonzero"/></clipPath><clipPath id="5ea7d143da"><path d="M 208.160156 0.71875 C 93.617188 0.71875 0.761719 121.160156 0.761719 269.738281 C 0.761719 418.316406 93.617188 538.761719 208.160156 538.761719 C 322.703125 538.761719 415.558594 418.316406 415.558594 269.738281 C 415.558594 121.160156 322.703125 0.71875 208.160156 0.71875 Z M 208.160156 0.71875 " clip-rule="nonzero"/></clipPath><clipPath id="f1c7b8ce62"><rect x="0" width="416" y="0" height="539"/></clipPath><clipPath id="201568e89c"><path d="M 778.332031 805.71875 L 1193.132812 805.71875 L 1193.132812 1344 L 778.332031 1344 Z M 778.332031 805.71875 " clip-rule="nonzero"/></clipPath><clipPath id="1929b9c3aa"><path d="M 985.734375 805.71875 C 871.191406 805.71875 778.332031 926.160156 778.332031 1074.738281 C 778.332031 1223.316406 871.191406 1343.761719 985.734375 1343.761719 C 1100.277344 1343.761719 1193.132812 1223.316406 1193.132812 1074.738281 C 1193.132812 926.160156 1100.277344 805.71875 985.734375 805.71875 Z M 985.734375 805.71875 " clip-rule="nonzero"/></clipPath><clipPath id="5e2f016c94"><path d="M 0.332031 0.71875 L 415.132812 0.71875 L 415.132812 539 L 0.332031 539 Z M 0.332031 0.71875 " clip-rule="nonzero"/></clipPath><clipPath id="1a8f76beed"><path d="M 207.734375 0.71875 C 93.191406 0.71875 0.332031 121.160156 0.332031 269.738281 C 0.332031 418.316406 93.191406 538.761719 207.734375 538.761719 C 322.277344 538.761719 415.132812 418.316406 415.132812 269.738281 C 415.132812 121.160156 322.277344 0.71875 207.734375 0.71875 Z M 207.734375 0.71875 " clip-rule="nonzero"/></clipPath><clipPath id="7b0fdbf0d2"><rect x="0" width="416" y="0" height="539"/></clipPath></defs><g clip-path="url(#6dee877dd6)"><g clip-path="url(#eeac7f1614)"><g transform="matrix(1, 0, 0, 1, 82, 629)"><g clip-path="url(#04a16d8e14)"><g clip-path="url(#7fb3dab3f5)"><g clip-path="url(#e4840bcc75)"><path fill="#000000" d="M 0.632812 0.71875 L 2444.429688 0.71875 L 2444.429688 1851.679688 L 0.632812 1851.679688 Z M 0.632812 0.71875 " fill-opacity="1" fill-rule="nonzero"/></g></g></g></g></g></g><g clip-path="url(#05399e5a1d)"><g clip-path="url(#e37b6fc9a8)"><g clip-path="url(#2342d77752)"><g transform="matrix(1, 0, 0, 1, 516, 696)"><g clip-path="url(#9bf80a0b01)"><g clip-path="url(#19f4a74627)"><g clip-path="url(#ed64b4b81f)"><g clip-path="url(#9762ad7a91)"><path fill="#000000" d="M -36.289062 57.679688 L 118.78125 -17.492188 L 172.6875 93.707031 L 17.617188 168.878906 Z M -36.289062 57.679688 " fill-opacity="1" fill-rule="nonzero"/></g></g></g></g></g></g></g></g><g clip-path="url(#08be3c3aaa)"><g clip-path="url(#0d764c965d)"><g clip-path="url(#fde137085e)"><g transform="matrix(1, 0, 0, 1, 1919, 693)"><g clip-path="url(#fad6ecdc1f)"><g clip-path="url(#0d6d063d62)"><g clip-path="url(#2fe46e9c76)"><g clip-path="url(#fc053ce54c)"><path fill="#000000" d="M 59.910156 -18.855469 L 211.816406 63.539062 L 152.898438 172.164062 L 0.992188 89.769531 Z M 59.910156 -18.855469 " fill-opacity="1" fill-rule="nonzero"/></g></g></g></g></g></g></g></g><g clip-path="url(#43ebb24609)"><g clip-path="url(#e8f33a7ad2)"><g clip-path="url(#44ae3d4734)"><g transform="matrix(1, 0, 0, 1, 2324, 1231)"><g clip-path="url(#81148c0483)"><g clip-path="url(#8c651d2e5a)"><g clip-path="url(#d797763548)"><g clip-path="url(#2dade6097a)"><path fill="#000000" d="M 1.464844 146.890625 L -1.28125 2.804688 L 255.933594 -2.101562 L 258.679688 141.984375 Z M 1.464844 146.890625 " fill-opacity="1" fill-rule="nonzero"/></g></g></g></g></g></g></g></g><g clip-path="url(#835981829a)"><g clip-path="url(#e7b50bab1c)"><g clip-path="url(#b2b6359724)"><g transform="matrix(1, 0, 0, 1, 2294, 1086)"><g clip-path="url(#2b48881f32)"><g clip-path="url(#d241995da8)"><g clip-path="url(#76aa460ae7)"><g clip-path="url(#254fb0ab0f)"><path fill="#000000" d="M 192.273438 -36.761719 L 266.800781 86.582031 L 44.203125 221.082031 L -30.324219 97.734375 Z M 192.273438 -36.761719 " fill-opacity="1" fill-rule="nonzero"/></g></g></g></g></g></g></g></g><g clip-path="url(#3757b01006)"><g clip-path="url(#dc43db5bcf)"><g clip-path="url(#d2367f99f7)"><g transform="matrix(1, 0, 0, 1, 46, 1073)"><g clip-path="url(#fda495c146)"><g clip-path="url(#3d1db0d0e9)"><g clip-path="url(#13b253ee11)"><g clip-path="url(#274d19545d)"><path fill="#000000" d="M 268.871094 80.6875 L 204.324219 209.539062 L -27.703125 93.304688 L 36.839844 -35.542969 Z M 268.871094 80.6875 " fill-opacity="1" fill-rule="nonzero"/></g></g></g></g></g></g></g></g><g clip-path="url(#7e93cce6bd)"><g clip-path="url(#cffb580187)"><g clip-path="url(#fa2bd98aab)"><g transform="matrix(1, 0, 0, 1, 13, 1216)"><g clip-path="url(#26edd90f15)"><g clip-path="url(#63c8cb181e)"><g clip-path="url(#44ec868819)"><g clip-path="url(#7c32706634)"><path fill="#000000" d="M 5.007812 152.6875 L -3.640625 8.835938 L 253.160156 -6.601562 L 261.808594 137.25 Z M 5.007812 152.6875 " fill-opacity="1" fill-rule="nonzero"/></g></g></g></g></g></g></g></g><g clip-path="url(#705fb3264c)"><g clip-path="url(#1a241a2459)"><g transform="matrix(1, 0, 0, 1, 1384, 805)"><g clip-path="url(#f1c7b8ce62)"><g clip-path="url(#b97490aa7f)"><g clip-path="url(#5ea7d143da)"><path fill="#ffffff" d="M 0.761719 0.71875 L 415.558594 0.71875 L 415.558594 538.660156 L 0.761719 538.660156 Z M 0.761719 0.71875 " fill-opacity="1" fill-rule="nonzero"/></g></g></g></g></g></g><g clip-path="url(#201568e89c)"><g clip-path="url(#1929b9c3aa)"><g transform="matrix(1, 0, 0, 1, 778, 805)"><g clip-path="url(#7b0fdbf0d2)"><g clip-path="url(#5e2f016c94)"><g clip-path="url(#1a8f76beed)"><path fill="#ffffff" d="M 0.332031 0.71875 L 415.132812 0.71875 L 415.132812 538.660156 L 0.332031 538.660156 Z M 0.332031 0.71875 " fill-opacity="1" fill-rule="nonzero"/></g></g></g></g></g></g></svg>