<svg xmlns="http://www.w3.org/2000/svg" xmlns:xlink="http://www.w3.org/1999/xlink" width="3456" zoomAndPan="magnify" viewBox="0 0 2592 1727.999927" height="2304" preserveAspectRatio="xMidYMid meet" version="1.0"><defs><clipPath id="7d11337d00"><path d="M 1434.894531 954.007812 L 1621.046875 954.007812 L 1621.046875 1196 L 1434.894531 1196 Z M 1434.894531 954.007812 " clip-rule="nonzero"/></clipPath><clipPath id="4f1d9776f0"><path d="M 1527.96875 954.007812 C 1476.566406 954.007812 1434.894531 1008.058594 1434.894531 1074.738281 C 1434.894531 1141.417969 1476.566406 1195.46875 1527.96875 1195.46875 C 1579.375 1195.46875 1621.046875 1141.417969 1621.046875 1074.738281 C 1621.046875 1008.058594 1579.375 954.007812 1527.96875 954.007812 Z M 1527.96875 954.007812 " clip-rule="nonzero"/></clipPath><clipPath id="9a058e8378"><path d="M 0.894531 0.0078125 L 187.046875 0.0078125 L 187.046875 241.679688 L 0.894531 241.679688 Z M 0.894531 0.0078125 " clip-rule="nonzero"/></clipPath><clipPath id="d5508fbdd5"><path d="M 93.96875 0.0078125 C 42.566406 0.0078125 0.894531 54.058594 0.894531 120.738281 C 0.894531 187.417969 42.566406 241.46875 93.96875 241.46875 C 145.375 241.46875 187.046875 187.417969 187.046875 120.738281 C 187.046875 54.058594 145.375 0.0078125 93.96875 0.0078125 Z M 93.96875 0.0078125 " clip-rule="nonzero"/></clipPath><clipPath id="50ee8eeeaa"><rect x="0" width="188" y="0" height="242"/></clipPath><clipPath id="94e0f38d80"><path d="M 959.871094 954.007812 L 1146.023438 954.007812 L 1146.023438 1196 L 959.871094 1196 Z M 959.871094 954.007812 " clip-rule="nonzero"/></clipPath><clipPath id="6fbf7d780f"><path d="M 1052.949219 954.007812 C 1001.542969 954.007812 959.871094 1008.058594 959.871094 1074.738281 C 959.871094 1141.417969 1001.542969 1195.46875 1052.949219 1195.46875 C 1104.351562 1195.46875 1146.023438 1141.417969 1146.023438 1074.738281 C 1146.023438 1008.058594 1104.351562 954.007812 1052.949219 954.007812 Z M 1052.949219 954.007812 " clip-rule="nonzero"/></clipPath><clipPath id="2f74aa1bf4"><path d="M 0.871094 0.0078125 L 187.023438 0.0078125 L 187.023438 241.679688 L 0.871094 241.679688 Z M 0.871094 0.0078125 " clip-rule="nonzero"/></clipPath><clipPath id="facbbd43f5"><path d="M 93.949219 0.0078125 C 42.542969 0.0078125 0.871094 54.058594 0.871094 120.738281 C 0.871094 187.417969 42.542969 241.46875 93.949219 241.46875 C 145.351562 241.46875 187.023438 187.417969 187.023438 120.738281 C 187.023438 54.058594 145.351562 0.0078125 93.949219 0.0078125 Z M 93.949219 0.0078125 " clip-rule="nonzero"/></clipPath><clipPath id="5be4faa2ae"><rect x="0" width="188" y="0" height="242"/></clipPath></defs><g clip-path="url(#7d11337d00)"><g clip-path="url(#4f1d9776f0)"><g transform="matrix(1, 0, 0, 1, 1434, 954)"><g clip-path="url(#50ee8eeeaa)"><g clip-path="url(#9a058e8378)"><g clip-path="url(#d5508fbdd5)"><path fill="#000000" d="M 0.894531 0.0078125 L 187.046875 0.0078125 L 187.046875 241.425781 L 0.894531 241.425781 Z M 0.894531 0.0078125 " fill-opacity="1" fill-rule="nonzero"/></g></g></g></g></g></g><g clip-path="url(#94e0f38d80)"><g clip-path="url(#6fbf7d780f)"><g transform="matrix(1, 0, 0, 1, 959, 954)"><g clip-path="url(#5be4faa2ae)"><g clip-path="url(#2f74aa1bf4)"><g clip-path="url(#facbbd43f5)"><path fill="#000000" d="M 0.871094 0.0078125 L 187.023438 0.0078125 L 187.023438 241.425781 L 0.871094 241.425781 Z M 0.871094 0.0078125 " fill-opacity="1" fill-rule="nonzero"/></g></g></g></g></g></g></svg>