<svg xmlns="http://www.w3.org/2000/svg" xmlns:xlink="http://www.w3.org/1999/xlink" width="3456" zoomAndPan="magnify" viewBox="0 0 2592 1727.999927" height="2304" preserveAspectRatio="xMidYMid meet" version="1.0"><defs><clipPath id="606b32859d"><path d="M 425 1452.585938 L 2152.484375 1452.585938 L 2152.484375 1728 L 425 1728 Z M 425 1452.585938 " clip-rule="nonzero"/></clipPath><clipPath id="c98e47bb78"><path d="M 425.410156 1452.585938 C 425.410156 1894.011719 818.589844 2263.011719 1288.945312 2263.011719 C 1759.304688 2263.011719 2152.484375 1894.011719 2152.484375 1452.585938 Z M 425.410156 1452.585938 " clip-rule="nonzero"/></clipPath><clipPath id="334f460ad8"><path d="M 0.28125 0.585938 L 1727.484375 0.585938 L 1727.484375 276 L 0.28125 276 Z M 0.28125 0.585938 " clip-rule="nonzero"/></clipPath><clipPath id="9a913cf581"><path d="M 0.410156 0.585938 C 0.410156 442.011719 393.589844 811.011719 863.945312 811.011719 C 1334.304688 811.011719 1727.484375 442.011719 1727.484375 0.585938 Z M 0.410156 0.585938 " clip-rule="nonzero"/></clipPath><clipPath id="ea6a112fe3"><rect x="0" width="1728" y="0" height="276"/></clipPath><clipPath id="0a7303ba7b"><path d="M 425.40625 1383.679688 L 2152.882812 1383.679688 L 2152.882812 1521.492188 L 425.40625 1521.492188 Z M 425.40625 1383.679688 " clip-rule="nonzero"/></clipPath><clipPath id="d470e2ad00"><path d="M 425.40625 1452.585938 C 425.40625 1490.640625 812.023438 1521.492188 1288.941406 1521.492188 C 1765.859375 1521.492188 2152.480469 1490.640625 2152.480469 1452.585938 C 2152.480469 1414.53125 1765.859375 1383.679688 1288.941406 1383.679688 C 812.023438 1383.679688 425.40625 1414.53125 425.40625 1452.585938 Z M 425.40625 1452.585938 " clip-rule="nonzero"/></clipPath><clipPath id="c1d800320c"><path d="M 0.40625 0.679688 L 1727.558594 0.679688 L 1727.558594 138.492188 L 0.40625 138.492188 Z M 0.40625 0.679688 " clip-rule="nonzero"/></clipPath><clipPath id="49e3733278"><path d="M 0.40625 69.585938 C 0.40625 107.640625 387.023438 138.492188 863.941406 138.492188 C 1340.859375 138.492188 1727.480469 107.640625 1727.480469 69.585938 C 1727.480469 31.53125 1340.859375 0.679688 863.941406 0.679688 C 387.023438 0.679688 0.40625 31.53125 0.40625 69.585938 Z M 0.40625 69.585938 " clip-rule="nonzero"/></clipPath><clipPath id="4f282ad297"><rect x="0" width="1728" y="0" height="139"/></clipPath><clipPath id="3b6892be8c"><path d="M 633 1465 L 766 1465 L 766 1614 L 633 1614 Z M 633 1465 " clip-rule="nonzero"/></clipPath><clipPath id="b9b22d43e7"><path d="M 632.117188 1475.539062 L 764.703125 1464.109375 L 777.121094 1608.125 L 644.53125 1619.554688 Z M 632.117188 1475.539062 " clip-rule="nonzero"/></clipPath><clipPath id="10c88b1d58"><path d="M 718.597656 1607.652344 L 764.835938 1481.820312 C 766.300781 1477.839844 765.625 1473.386719 763.050781 1470.019531 C 760.476562 1466.648438 756.359375 1464.828125 752.136719 1465.191406 L 644.6875 1474.453125 C 640.460938 1474.820312 636.714844 1477.316406 634.757812 1481.078125 C 632.796875 1484.839844 632.894531 1489.339844 635.019531 1493.011719 L 702.113281 1609.070312 C 703.886719 1612.140625 707.273438 1613.90625 710.804688 1613.601562 C 714.335938 1613.296875 717.375 1610.976562 718.597656 1607.652344 Z M 718.597656 1607.652344 " clip-rule="nonzero"/></clipPath><clipPath id="b73fb30bff"><path d="M 0 0 L 133 0 L 133 149 L 0 149 Z M 0 0 " clip-rule="nonzero"/></clipPath><clipPath id="e1a7310d3f"><path d="M -0.882812 10.539062 L 131.703125 -0.890625 L 144.121094 143.125 L 11.53125 154.554688 Z M -0.882812 10.539062 " clip-rule="nonzero"/></clipPath><clipPath id="39b140d183"><path d="M 85.597656 142.652344 L 131.835938 16.820312 C 133.300781 12.839844 132.625 8.386719 130.050781 5.019531 C 127.476562 1.648438 123.359375 -0.171875 119.136719 0.191406 L 11.6875 9.453125 C 7.460938 9.820312 3.714844 12.316406 1.757812 16.078125 C -0.203125 19.839844 -0.105469 24.339844 2.019531 28.011719 L 69.113281 144.070312 C 70.886719 147.140625 74.273438 148.90625 77.804688 148.601562 C 81.335938 148.296875 84.375 145.976562 85.597656 142.652344 Z M 85.597656 142.652344 " clip-rule="nonzero"/></clipPath><clipPath id="7c030a9c00"><rect x="0" width="133" y="0" height="149"/></clipPath><clipPath id="c32e8a1c23"><path d="M 1732 1463 L 1865 1463 L 1865 1615 L 1732 1615 Z M 1732 1463 " clip-rule="nonzero"/></clipPath><clipPath id="c4a6ef4b3a"><path d="M 1734.253906 1462.210938 L 1866.175781 1481.914062 L 1844.773438 1625.210938 L 1712.851562 1605.507812 Z M 1734.253906 1462.210938 " clip-rule="nonzero"/></clipPath><clipPath id="cf47abf8ab"><path d="M 1787.871094 1610.820312 L 1862.195312 1499.167969 C 1864.542969 1495.636719 1864.921875 1491.152344 1863.203125 1487.28125 C 1861.484375 1483.40625 1857.90625 1480.679688 1853.710938 1480.054688 L 1746.714844 1464.074219 C 1742.523438 1463.445312 1738.300781 1465.007812 1735.527344 1468.210938 C 1732.75 1471.414062 1731.804688 1475.8125 1733.019531 1479.875 L 1771.476562 1608.371094 C 1772.492188 1611.773438 1775.382812 1614.28125 1778.894531 1614.804688 C 1782.40625 1615.328125 1785.902344 1613.777344 1787.871094 1610.820312 Z M 1787.871094 1610.820312 " clip-rule="nonzero"/></clipPath><clipPath id="4e091ca945"><path d="M 0 0.28125 L 133 0.28125 L 133 152 L 0 152 Z M 0 0.28125 " clip-rule="nonzero"/></clipPath><clipPath id="223e848be7"><path d="M 2.253906 -0.789062 L 134.175781 18.914062 L 112.773438 162.210938 L -19.148438 142.507812 Z M 2.253906 -0.789062 " clip-rule="nonzero"/></clipPath><clipPath id="6135ec8ca3"><path d="M 55.871094 147.820312 L 130.195312 36.167969 C 132.542969 32.636719 132.921875 28.152344 131.203125 24.28125 C 129.484375 20.40625 125.90625 17.679688 121.710938 17.054688 L 14.714844 1.074219 C 10.523438 0.445312 6.300781 2.007812 3.527344 5.210938 C 0.75 8.414062 -0.195312 12.8125 1.019531 16.875 L 39.476562 145.371094 C 40.492188 148.773438 43.382812 151.28125 46.894531 151.804688 C 50.40625 152.328125 53.902344 150.777344 55.871094 147.820312 Z M 55.871094 147.820312 " clip-rule="nonzero"/></clipPath><clipPath id="ec4cc040bb"><rect x="0" width="133" y="0" height="152"/></clipPath></defs><g clip-path="url(#606b32859d)"><g clip-path="url(#c98e47bb78)"><g transform="matrix(1, 0, 0, 1, 425, 1452)"><g clip-path="url(#ea6a112fe3)"><g clip-path="url(#334f460ad8)"><g clip-path="url(#9a913cf581)"><path fill="#ffffff" d="M 1727.484375 811.011719 L -1.003906 811.011719 L -1.003906 0.585938 L 1727.484375 0.585938 Z M 1727.484375 811.011719 " fill-opacity="1" fill-rule="nonzero"/></g></g></g></g></g></g><g clip-path="url(#0a7303ba7b)"><g clip-path="url(#d470e2ad00)"><g transform="matrix(1, 0, 0, 1, 425, 1383)"><g clip-path="url(#4f282ad297)"><g clip-path="url(#c1d800320c)"><g clip-path="url(#49e3733278)"><path fill="#000000" d="M 0.40625 138.492188 L 0.40625 0.679688 L 1727.34375 0.679688 L 1727.34375 138.492188 Z M 0.40625 138.492188 " fill-opacity="1" fill-rule="nonzero"/></g></g></g></g></g></g><g clip-path="url(#3b6892be8c)"><g clip-path="url(#b9b22d43e7)"><g clip-path="url(#10c88b1d58)"><g transform="matrix(1, 0, 0, 1, 633, 1465)"><g clip-path="url(#7c030a9c00)"><g clip-path="url(#b73fb30bff)"><g clip-path="url(#e1a7310d3f)"><g clip-path="url(#39b140d183)"><path fill="#000000" d="M -7.742188 11.128906 L 138.5625 -1.484375 L 152.011719 154.535156 L 5.710938 167.148438 Z M -7.742188 11.128906 " fill-opacity="1" fill-rule="nonzero"/></g></g></g></g></g></g></g></g><g clip-path="url(#c32e8a1c23)"><g clip-path="url(#c4a6ef4b3a)"><g clip-path="url(#cf47abf8ab)"><g transform="matrix(1, 0, 0, 1, 1732, 1463)"><g clip-path="url(#ec4cc040bb)"><g clip-path="url(#4e091ca945)"><g clip-path="url(#223e848be7)"><g clip-path="url(#6135ec8ca3)"><path fill="#000000" d="M -4.570312 -1.808594 L 141 19.933594 L 117.8125 175.167969 L -27.753906 153.429688 Z M -4.570312 -1.808594 " fill-opacity="1" fill-rule="nonzero"/></g></g></g></g></g></g></g></g></svg>