<svg xmlns="http://www.w3.org/2000/svg" xmlns:xlink="http://www.w3.org/1999/xlink" width="3456" zoomAndPan="magnify" viewBox="0 0 2592 1727.999927" height="2304" preserveAspectRatio="xMidYMid meet" version="1.0"><defs><clipPath id="e8a593aefe"><path d="M 126 112 L 2433 112 L 2433 1639 L 126 1639 Z M 126 112 " clip-rule="nonzero"/></clipPath><clipPath id="53ec5ee7d8"><path d="M 196.800781 0 L 2518.460938 199.46875 L 2387.863281 1719.535156 L 66.203125 1520.066406 Z M 196.800781 0 " clip-rule="nonzero"/></clipPath><clipPath id="2764a84167"><path d="M 1511.9375 112.992188 C 1537.34375 115.175781 1562.90625 117.371094 1588.261719 119.546875 C 1788.238281 162.304688 1907.316406 257.671875 1952.980469 400.902344 C 2291.597656 411.417969 2514.171875 693.949219 2342.789062 937.75 C 2387.8125 995.941406 2424.058594 1059.824219 2432.066406 1142.070312 C 2430.074219 1165.261719 2428.085938 1188.398438 2426.09375 1211.585938 C 2363.800781 1413.8125 2159.972656 1536.566406 1848.203125 1472.019531 C 1758.070312 1570.855469 1604.753906 1664.417969 1381.484375 1631.941406 C 1266.089844 1615.03125 1188.851562 1567.867188 1122.402344 1512.921875 C 1044.496094 1547.15625 961.164062 1572.117188 844.6875 1562.464844 C 575.242188 1539.917969 408.476562 1367.910156 422.550781 1152.832031 C 253.683594 1087.726562 144.4375 983.890625 126.285156 820.71875 C 128.277344 797.53125 130.277344 774.292969 132.257812 751.203125 C 181.167969 595.257812 300.667969 504.929688 488.988281 478.464844 C 500.933594 209.339844 884.75 73.503906 1178.089844 217.726562 C 1255.367188 165.511719 1363.074219 110.574219 1511.9375 112.992188 Z M 1511.9375 112.992188 " clip-rule="nonzero"/></clipPath><clipPath id="badd5cbaa1"><path d="M 0.238281 0 L 2307 0 L 2307 1527 L 0.238281 1527 Z M 0.238281 0 " clip-rule="nonzero"/></clipPath><clipPath id="0abbf178dc"><path d="M 70.800781 -112 L 2392.460938 87.46875 L 2261.863281 1607.535156 L -59.796875 1408.066406 Z M 70.800781 -112 " clip-rule="nonzero"/></clipPath><clipPath id="2c034a6952"><path d="M 1385.9375 0.992188 C 1411.34375 3.175781 1436.90625 5.371094 1462.261719 7.546875 C 1662.238281 50.304688 1781.316406 145.671875 1826.980469 288.902344 C 2165.597656 299.417969 2388.171875 581.949219 2216.789062 825.75 C 2261.8125 883.941406 2298.058594 947.824219 2306.066406 1030.070312 C 2304.074219 1053.261719 2302.085938 1076.398438 2300.09375 1099.585938 C 2237.800781 1301.8125 2033.972656 1424.566406 1722.203125 1360.019531 C 1632.070312 1458.855469 1478.753906 1552.417969 1255.484375 1519.941406 C 1140.089844 1503.03125 1062.851562 1455.867188 996.402344 1400.921875 C 918.496094 1435.15625 835.164062 1460.117188 718.6875 1450.464844 C 449.242188 1427.917969 282.476562 1255.910156 296.550781 1040.832031 C 127.683594 975.726562 18.4375 871.890625 0.285156 708.71875 C 2.277344 685.53125 4.277344 662.292969 6.257812 639.203125 C 55.167969 483.257812 174.667969 392.929688 362.988281 366.464844 C 374.933594 97.339844 758.75 -38.496094 1052.089844 105.726562 C 1129.367188 53.511719 1237.074219 -1.425781 1385.9375 0.992188 Z M 1385.9375 0.992188 " clip-rule="nonzero"/></clipPath><clipPath id="040d473857"><rect x="0" width="2307" y="0" height="1527"/></clipPath><clipPath id="1ce72f9c5b"><path d="M 817.328125 417 L 1754 417 L 1754 1355 L 817.328125 1355 Z M 817.328125 417 " clip-rule="nonzero"/></clipPath><clipPath id="17ece2b30b"><path d="M 817.328125 417 L 1754 417 L 1754 1355 L 817.328125 1355 Z M 817.328125 417 " clip-rule="nonzero"/></clipPath></defs><g clip-path="url(#e8a593aefe)"><g clip-path="url(#53ec5ee7d8)"><g clip-path="url(#2764a84167)"><g transform="matrix(1, 0, 0, 1, 126, 112)"><g clip-path="url(#040d473857)"><g clip-path="url(#badd5cbaa1)"><g clip-path="url(#0abbf178dc)"><g clip-path="url(#2c034a6952)"><path fill="#000000" d="M 70.800781 -112 L 2386.523438 86.957031 L 2255.925781 1607.023438 L -59.796875 1408.066406 Z M 70.800781 -112 " fill-opacity="1" fill-rule="nonzero"/></g></g></g></g></g></g></g></g><g clip-path="url(#1ce72f9c5b)"><path fill="#ffffff" d="M 1725.132812 1188.617188 L 1559.542969 1023.03125 C 1531.378906 994.71875 1490.285156 987.515625 1455.335938 1001.1875 L 1408.511719 954.359375 C 1453.1875 897.914062 1480.0625 826.722656 1480.0625 749.132812 C 1480.0625 566.207031 1331.816406 417.960938 1148.890625 417.960938 C 965.964844 417.960938 817.714844 566.207031 817.714844 749.132812 C 817.714844 932.054688 965.964844 1080.304688 1148.890625 1080.304688 C 1226.066406 1080.304688 1296.898438 1053.691406 1353.199219 1009.441406 L 1400.109375 1056.351562 C 1386.460938 1091.246094 1393.625 1132.425781 1421.816406 1160.757812 L 1587.402344 1326.347656 C 1625.9375 1364.496094 1687.441406 1364.035156 1725.132812 1326.347656 C 1763.3125 1288.164062 1763.3125 1226.605469 1725.132812 1188.617188 Z M 876.160156 749.132812 C 876.160156 598.742188 998.5 476.402344 1148.890625 476.402344 C 1299.28125 476.402344 1421.621094 598.742188 1421.621094 749.132812 C 1421.621094 899.523438 1299.28125 1021.863281 1148.890625 1021.863281 C 998.5 1021.863281 876.160156 899.523438 876.160156 749.132812 Z M 1697.664062 1298.683594 C 1690.355469 1306.375 1677.675781 1306.5625 1670.195312 1298.683594 C 1662.597656 1291.085938 1662.597656 1278.8125 1670.195312 1271.214844 C 1677.757812 1263.652344 1677.726562 1251.085938 1670.195312 1243.554688 L 1620.128906 1193.679688 C 1612.53125 1186.085938 1612.53125 1173.8125 1620.128906 1166.214844 C 1627.726562 1158.617188 1640.195312 1158.617188 1647.792969 1166.214844 L 1697.664062 1216.085938 C 1721.054688 1239.476562 1720.007812 1276.726562 1697.664062 1298.683594 Z M 1697.664062 1298.683594 " fill-opacity="1" fill-rule="nonzero"/></g><path fill="#ffffff" d="M 1148.886719 515.363281 C 1086.449219 515.363281 1027.742188 539.675781 983.59375 583.832031 C 975.984375 591.441406 975.984375 603.769531 983.59375 611.378906 C 991.207031 618.988281 1003.53125 618.988281 1011.140625 611.378906 C 1047.933594 574.585938 1096.855469 554.328125 1148.886719 554.328125 C 1200.925781 554.328125 1249.847656 574.585938 1286.640625 611.378906 C 1294.25 618.988281 1306.578125 618.988281 1314.1875 611.378906 C 1321.796875 603.769531 1321.796875 591.441406 1314.1875 583.832031 C 1270.03125 539.675781 1211.332031 515.363281 1148.886719 515.363281 Z M 1148.886719 515.363281 " fill-opacity="1" fill-rule="nonzero"/><g clip-path="url(#17ece2b30b)"><path fill="#ffffff" d="M 1725.132812 1188.617188 L 1559.542969 1023.03125 C 1531.378906 994.71875 1490.285156 987.515625 1455.335938 1001.1875 L 1408.511719 954.359375 C 1453.1875 897.914062 1480.0625 826.722656 1480.0625 749.132812 C 1480.0625 566.207031 1331.816406 417.960938 1148.890625 417.960938 C 965.964844 417.960938 817.714844 566.207031 817.714844 749.132812 C 817.714844 932.054688 965.964844 1080.304688 1148.890625 1080.304688 C 1226.066406 1080.304688 1296.898438 1053.691406 1353.199219 1009.441406 L 1400.109375 1056.351562 C 1386.460938 1091.246094 1393.625 1132.425781 1421.816406 1160.757812 L 1587.402344 1326.347656 C 1625.9375 1364.496094 1687.441406 1364.035156 1725.132812 1326.347656 C 1763.3125 1288.164062 1763.3125 1226.605469 1725.132812 1188.617188 Z M 876.160156 749.132812 C 876.160156 598.742188 998.5 476.402344 1148.890625 476.402344 C 1299.28125 476.402344 1421.621094 598.742188 1421.621094 749.132812 C 1421.621094 899.523438 1299.28125 1021.863281 1148.890625 1021.863281 C 998.5 1021.863281 876.160156 899.523438 876.160156 749.132812 Z M 1697.664062 1298.683594 C 1690.355469 1306.375 1677.675781 1306.5625 1670.195312 1298.683594 C 1662.597656 1291.085938 1662.597656 1278.8125 1670.195312 1271.214844 C 1677.757812 1263.652344 1677.726562 1251.085938 1670.195312 1243.554688 L 1620.128906 1193.679688 C 1612.53125 1186.085938 1612.53125 1173.8125 1620.128906 1166.214844 C 1627.726562 1158.617188 1640.195312 1158.617188 1647.792969 1166.214844 L 1697.664062 1216.085938 C 1721.054688 1239.476562 1720.007812 1276.726562 1697.664062 1298.683594 Z M 1697.664062 1298.683594 " fill-opacity="1" fill-rule="nonzero"/></g><path fill="#ffffff" d="M 1148.886719 515.363281 C 1086.449219 515.363281 1027.742188 539.675781 983.59375 583.832031 C 975.984375 591.441406 975.984375 603.769531 983.59375 611.378906 C 991.207031 618.988281 1003.53125 618.988281 1011.140625 611.378906 C 1047.933594 574.585938 1096.855469 554.328125 1148.886719 554.328125 C 1200.925781 554.328125 1249.847656 574.585938 1286.640625 611.378906 C 1294.25 618.988281 1306.578125 618.988281 1314.1875 611.378906 C 1321.796875 603.769531 1321.796875 591.441406 1314.1875 583.832031 C 1270.03125 539.675781 1211.332031 515.363281 1148.886719 515.363281 Z M 1148.886719 515.363281 " fill-opacity="1" fill-rule="nonzero"/></svg>