<svg xmlns="http://www.w3.org/2000/svg" xmlns:xlink="http://www.w3.org/1999/xlink" width="3456" zoomAndPan="magnify" viewBox="0 0 2592 1727.999927" height="2304" preserveAspectRatio="xMidYMid meet" version="1.0"><defs><clipPath id="67c38d03f5"><path d="M 198.113281 143.511719 L 2394 143.511719 L 2394 1584.488281 L 198.113281 1584.488281 Z M 198.113281 143.511719 " clip-rule="nonzero"/></clipPath><clipPath id="a2585f2c50"><path d="M 1444.824219 143.511719 C 1468.910156 143.511719 1493.140625 143.511719 1517.175781 143.511719 C 1708.816406 167.582031 1828.582031 247.695312 1883.132812 378.785156 C 2202.625 361.304688 2434.917969 609.175781 2293.351562 852.453125 C 2340.429688 903.574219 2379.703125 960.757812 2393.886719 1037.507812 C 2393.886719 1059.492188 2393.886719 1081.425781 2393.886719 1103.40625 C 2351.617188 1298.742188 2169.734375 1430.734375 1871.132812 1395.203125 C 1794.304688 1495.496094 1657.597656 1595.9375 1444.871094 1583.425781 C 1334.914062 1576.84375 1258.417969 1538.707031 1191.445312 1492.371094 C 1120.902344 1530.886719 1044.5 1561.113281 934.117188 1561.445312 C 678.738281 1562.015625 507.898438 1413.632812 503.757812 1210.101562 C 339.582031 1162.488281 228.390625 1073.609375 198.113281 921.527344 C 198.113281 899.546875 198.113281 877.519531 198.113281 855.628906 C 231.53125 704.925781 336.679688 610.265625 511.753906 570.136719 C 501.234375 315.917969 851.433594 157.0625 1139.132812 269.0625 C 1207.628906 213.679688 1304.542969 153.273438 1444.824219 143.511719 Z M 1444.824219 143.511719 " clip-rule="nonzero"/></clipPath><clipPath id="ee93ad0474"><path d="M 0.113281 0.511719 L 2196 0.511719 L 2196 1441.488281 L 0.113281 1441.488281 Z M 0.113281 0.511719 " clip-rule="nonzero"/></clipPath><clipPath id="99cac41077"><path d="M 1246.824219 0.511719 C 1270.910156 0.511719 1295.140625 0.511719 1319.175781 0.511719 C 1510.816406 24.582031 1630.582031 104.695312 1685.132812 235.785156 C 2004.625 218.304688 2236.917969 466.175781 2095.351562 709.453125 C 2142.429688 760.574219 2181.703125 817.757812 2195.886719 894.507812 C 2195.886719 916.492188 2195.886719 938.425781 2195.886719 960.40625 C 2153.617188 1155.742188 1971.734375 1287.734375 1673.132812 1252.203125 C 1596.304688 1352.496094 1459.597656 1452.9375 1246.871094 1440.425781 C 1136.914062 1433.84375 1060.417969 1395.707031 993.445312 1349.371094 C 922.902344 1387.886719 846.5 1418.113281 736.117188 1418.445312 C 480.738281 1419.015625 309.898438 1270.632812 305.757812 1067.101562 C 141.582031 1019.488281 30.390625 930.609375 0.113281 778.527344 C 0.113281 756.546875 0.113281 734.519531 0.113281 712.628906 C 33.53125 561.925781 138.679688 467.265625 313.753906 427.136719 C 303.234375 172.917969 653.433594 14.0625 941.132812 126.0625 C 1009.628906 70.679688 1106.542969 10.273438 1246.824219 0.511719 Z M 1246.824219 0.511719 " clip-rule="nonzero"/></clipPath><clipPath id="dfb96d0dc6"><rect x="0" width="2196" y="0" height="1442"/></clipPath><clipPath id="c177a419ae"><path d="M 1307 1329 L 1384 1329 L 1384 1387.070312 L 1307 1387.070312 Z M 1307 1329 " clip-rule="nonzero"/></clipPath><clipPath id="199d021223"><path d="M 1030 471 L 1661 471 L 1661 1387.070312 L 1030 1387.070312 Z M 1030 471 " clip-rule="nonzero"/></clipPath></defs><g clip-path="url(#67c38d03f5)"><g clip-path="url(#a2585f2c50)"><g transform="matrix(1, 0, 0, 1, 198, 143)"><g clip-path="url(#dfb96d0dc6)"><g clip-path="url(#ee93ad0474)"><g clip-path="url(#99cac41077)"><path fill="#000000" d="M 0.113281 0.511719 L 2195.347656 0.511719 L 2195.347656 1441.488281 L 0.113281 1441.488281 Z M 0.113281 0.511719 " fill-opacity="1" fill-rule="nonzero"/></g></g></g></g></g></g><path fill="#ffffff" d="M 1269.179688 1310.839844 C 1305.808594 1310.839844 1389.074219 1310.839844 1421.828125 1310.839844 L 1421.828125 1253.597656 L 1269.179688 1253.597656 Z M 1269.179688 1310.839844 " fill-opacity="1" fill-rule="nonzero"/><path fill="#ffffff" d="M 1231.015625 1177.273438 L 1231.015625 1234.515625 C 1301.292969 1234.515625 1389.652344 1234.515625 1459.988281 1234.515625 L 1459.988281 1177.273438 C 1437.648438 1177.273438 1253.375 1177.273438 1231.015625 1177.273438 Z M 1231.015625 1177.273438 " fill-opacity="1" fill-rule="nonzero"/><path fill="#ffffff" d="M 1420.078125 852.429688 C 1403.617188 851.003906 1393.59375 846.546875 1384.558594 842.535156 C 1374.035156 837.855469 1364.941406 833.8125 1345.503906 833.8125 C 1326.0625 833.8125 1316.96875 837.855469 1306.445312 842.535156 C 1297.414062 846.546875 1287.390625 851.003906 1270.925781 852.429688 L 1324.886719 1158.191406 L 1366.117188 1158.191406 Z M 1420.078125 852.429688 " fill-opacity="1" fill-rule="nonzero"/><path fill="#ffffff" d="M 1345.519531 471.273438 C 1263.082031 471.273438 1185.15625 503.132812 1125.6875 561.25 C 979.980469 703.632812 1006.125 941.207031 1174.328125 1050.375 C 1209.824219 1073.410156 1231.015625 1112.339844 1231.015625 1154.511719 L 1231.015625 1158.191406 L 1305.507812 1158.191406 L 1250.242188 845.015625 C 1249.210938 839.171875 1253.710938 833.8125 1259.636719 833.8125 C 1279.074219 833.8125 1288.167969 829.773438 1298.695312 825.09375 C 1309.621094 820.238281 1322.007812 814.734375 1345.5 814.734375 C 1368.992188 814.734375 1381.378906 820.238281 1392.308594 825.09375 C 1402.832031 829.773438 1411.925781 833.8125 1431.363281 833.8125 C 1437.296875 833.8125 1441.789062 839.175781 1440.757812 845.015625 L 1385.492188 1158.191406 L 1459.988281 1158.191406 L 1459.988281 1154.511719 C 1459.988281 1112.398438 1481.289062 1073.398438 1516.972656 1050.183594 C 1606.742188 991.773438 1660.339844 893.054688 1660.339844 786.113281 C 1660.339844 613.488281 1518.894531 471.273438 1345.519531 471.273438 Z M 1345.519531 471.273438 " fill-opacity="1" fill-rule="nonzero"/><g clip-path="url(#c177a419ae)"><path fill="#ffffff" d="M 1307.339844 1349.003906 C 1307.339844 1370.046875 1324.457031 1387.164062 1345.503906 1387.164062 C 1366.546875 1387.164062 1383.664062 1370.046875 1383.664062 1349.003906 L 1383.664062 1329.921875 L 1307.339844 1329.921875 Z M 1307.339844 1349.003906 " fill-opacity="1" fill-rule="nonzero"/></g><path fill="#ffffff" d="M 935.257812 720.851562 L 878.015625 720.851562 C 872.746094 720.851562 868.476562 725.125 868.476562 730.394531 C 868.476562 735.664062 872.746094 739.933594 878.015625 739.933594 L 935.257812 739.933594 C 940.527344 739.933594 944.800781 735.664062 944.800781 730.394531 C 944.800781 725.125 940.527344 720.851562 935.257812 720.851562 Z M 935.257812 720.851562 " fill-opacity="1" fill-rule="nonzero"/><path fill="#ffffff" d="M 960.851562 598.089844 L 907.21875 578.082031 C 902.28125 576.246094 896.785156 578.75 894.945312 583.6875 C 893.105469 588.625 895.613281 594.117188 900.550781 595.960938 L 954.183594 615.964844 C 959.101562 617.800781 964.609375 615.3125 966.457031 610.359375 C 968.296875 605.425781 965.789062 599.929688 960.851562 598.089844 Z M 960.851562 598.089844 " fill-opacity="1" fill-rule="nonzero"/><path fill="#ffffff" d="M 1028.691406 505.46875 C 1032.144531 501.484375 1031.714844 495.460938 1027.730469 492.011719 L 984.472656 454.523438 C 980.488281 451.074219 974.464844 451.503906 971.015625 455.484375 C 967.5625 459.46875 967.992188 465.492188 971.976562 468.945312 L 1015.234375 506.429688 C 1019.207031 509.871094 1025.234375 509.460938 1028.691406 505.46875 Z M 1028.691406 505.46875 " fill-opacity="1" fill-rule="nonzero"/><path fill="#ffffff" d="M 1812.988281 720.851562 L 1755.746094 720.851562 C 1750.476562 720.851562 1746.203125 725.125 1746.203125 730.394531 C 1746.203125 735.664062 1750.476562 739.933594 1755.746094 739.933594 L 1812.988281 739.933594 C 1818.257812 739.933594 1822.527344 735.664062 1822.527344 730.394531 C 1822.527344 725.125 1818.257812 720.851562 1812.988281 720.851562 Z M 1812.988281 720.851562 " fill-opacity="1" fill-rule="nonzero"/><path fill="#ffffff" d="M 1796.058594 583.6875 C 1794.21875 578.75 1788.71875 576.246094 1783.785156 578.082031 L 1730.152344 598.089844 C 1725.214844 599.929688 1722.707031 605.425781 1724.550781 610.359375 C 1726.398438 615.316406 1731.90625 617.800781 1736.820312 615.964844 L 1790.457031 595.960938 C 1795.390625 594.117188 1797.902344 588.625 1796.058594 583.6875 Z M 1796.058594 583.6875 " fill-opacity="1" fill-rule="nonzero"/><path fill="#ffffff" d="M 1706.53125 454.523438 L 1663.273438 492.011719 C 1659.289062 495.460938 1658.859375 501.484375 1662.3125 505.46875 C 1665.757812 509.453125 1671.792969 509.878906 1675.769531 506.429688 L 1719.027344 468.945312 C 1723.011719 465.492188 1723.441406 459.46875 1719.988281 455.484375 C 1716.539062 451.5 1710.511719 451.070312 1706.53125 454.523438 Z M 1706.53125 454.523438 " fill-opacity="1" fill-rule="nonzero"/><g clip-path="url(#199d021223)"><path fill="#ffffff" d="M 1383.664062 1349.003906 C 1383.664062 1370.046875 1366.546875 1387.164062 1345.503906 1387.164062 C 1324.457031 1387.164062 1307.339844 1370.046875 1307.339844 1349.003906 L 1307.339844 1329.921875 L 1383.664062 1329.921875 Z M 1421.828125 1310.839844 C 1376.128906 1310.839844 1314.898438 1310.839844 1269.179688 1310.839844 L 1269.179688 1253.597656 L 1421.828125 1253.597656 Z M 1459.988281 1234.515625 C 1390 1234.515625 1301.492188 1234.515625 1231.015625 1234.515625 L 1231.015625 1177.273438 C 1253.355469 1177.273438 1437.628906 1177.273438 1459.988281 1177.273438 Z M 1270.925781 852.429688 C 1287.386719 851.003906 1297.414062 846.546875 1306.445312 842.535156 C 1316.96875 837.855469 1326.0625 833.8125 1345.503906 833.8125 C 1364.941406 833.8125 1374.035156 837.855469 1384.558594 842.535156 C 1393.589844 846.546875 1403.613281 851.003906 1420.078125 852.429688 L 1366.117188 1158.191406 L 1324.886719 1158.191406 Z M 1516.972656 1050.179688 C 1481.292969 1073.394531 1459.988281 1112.398438 1459.988281 1154.511719 L 1459.988281 1158.191406 L 1385.496094 1158.191406 L 1440.761719 845.011719 C 1441.792969 839.167969 1437.292969 833.8125 1431.367188 833.8125 C 1411.929688 833.8125 1402.835938 829.773438 1392.308594 825.09375 C 1381.382812 820.238281 1368.996094 814.730469 1345.503906 814.730469 C 1322.011719 814.730469 1309.625 820.238281 1298.699219 825.09375 C 1288.171875 829.773438 1279.078125 833.8125 1259.640625 833.8125 C 1253.707031 833.8125 1249.214844 839.175781 1250.246094 845.011719 L 1305.511719 1158.191406 L 1231.015625 1158.191406 L 1231.015625 1154.507812 C 1231.015625 1112.335938 1209.824219 1073.410156 1174.328125 1050.371094 C 1006.015625 941.136719 980.15625 703.460938 1125.6875 561.25 C 1186.429688 501.890625 1266.273438 470.152344 1349.582031 471.300781 C 1520.933594 473.472656 1660.339844 614.699219 1660.339844 786.113281 C 1660.339844 893.054688 1606.742188 991.773438 1516.972656 1050.179688 Z M 1516.972656 1050.179688 " fill-opacity="1" fill-rule="nonzero"/></g></svg>