<svg xmlns="http://www.w3.org/2000/svg" xmlns:xlink="http://www.w3.org/1999/xlink" width="3456" zoomAndPan="magnify" viewBox="0 0 2592 1727.999927" height="2304" preserveAspectRatio="xMidYMid meet" version="1.0"><defs><clipPath id="7e6eb8bfaa"><path d="M 147 115 L 2510 115 L 2510 1678 L 147 1678 Z M 147 115 " clip-rule="nonzero"/></clipPath><clipPath id="5686517645"><path d="M 219.917969 0 L 2597.5 204.273438 L 2463.757812 1760.953125 L 86.171875 1556.679688 Z M 219.917969 0 " clip-rule="nonzero"/></clipPath><clipPath id="98f0f7adb9"><path d="M 1566.734375 115.714844 C 1592.753906 117.949219 1618.925781 120.199219 1644.894531 122.429688 C 1849.6875 166.214844 1971.632812 263.878906 2018.398438 410.558594 C 2365.167969 421.324219 2593.105469 710.664062 2417.59375 960.335938 C 2463.707031 1019.929688 2500.824219 1085.351562 2509.023438 1169.578125 C 2506.984375 1193.328125 2504.949219 1217.023438 2502.90625 1240.769531 C 2439.113281 1447.867188 2230.378906 1573.578125 1911.097656 1507.476562 C 1818.792969 1608.695312 1661.785156 1704.507812 1433.136719 1671.25 C 1314.960938 1653.933594 1235.863281 1605.632812 1167.8125 1549.363281 C 1088.03125 1584.421875 1002.691406 1609.984375 883.410156 1600.097656 C 607.472656 1577.011719 436.691406 1400.859375 451.105469 1180.601562 C 278.167969 1113.925781 166.292969 1007.589844 147.707031 840.488281 C 149.746094 816.742188 151.789062 792.941406 153.820312 769.296875 C 203.90625 609.59375 326.285156 517.09375 519.144531 489.992188 C 531.375 214.382812 924.4375 75.277344 1224.84375 222.96875 C 1303.980469 169.496094 1414.28125 113.234375 1566.734375 115.714844 Z M 1566.734375 115.714844 " clip-rule="nonzero"/></clipPath><clipPath id="6aed3f81a5"><path d="M 0.601562 0 L 2363 0 L 2363 1563 L 0.601562 1563 Z M 0.601562 0 " clip-rule="nonzero"/></clipPath><clipPath id="868926112c"><path d="M 72.917969 -115 L 2450.5 89.273438 L 2316.757812 1645.953125 L -60.828125 1441.679688 Z M 72.917969 -115 " clip-rule="nonzero"/></clipPath><clipPath id="7067e73aae"><path d="M 1419.734375 0.714844 C 1445.753906 2.949219 1471.925781 5.199219 1497.894531 7.429688 C 1702.6875 51.214844 1824.632812 148.878906 1871.398438 295.558594 C 2218.167969 306.324219 2446.105469 595.664062 2270.59375 845.335938 C 2316.707031 904.929688 2353.824219 970.351562 2362.023438 1054.578125 C 2359.984375 1078.328125 2357.949219 1102.023438 2355.90625 1125.769531 C 2292.113281 1332.867188 2083.378906 1458.578125 1764.097656 1392.476562 C 1671.792969 1493.695312 1514.785156 1589.507812 1286.136719 1556.25 C 1167.960938 1538.933594 1088.863281 1490.632812 1020.8125 1434.363281 C 941.03125 1469.421875 855.691406 1494.984375 736.410156 1485.097656 C 460.472656 1462.011719 289.691406 1285.859375 304.105469 1065.601562 C 131.167969 998.925781 19.292969 892.589844 0.707031 725.488281 C 2.746094 701.742188 4.789062 677.941406 6.820312 654.296875 C 56.90625 494.59375 179.285156 402.09375 372.144531 374.992188 C 384.375 99.382812 777.4375 -39.722656 1077.84375 107.96875 C 1156.980469 54.496094 1267.28125 -1.765625 1419.734375 0.714844 Z M 1419.734375 0.714844 " clip-rule="nonzero"/></clipPath><clipPath id="14f788f767"><rect x="0" width="2363" y="0" height="1563"/></clipPath><clipPath id="7bb0402293"><path d="M 1067 376 L 1736 376 L 1736 1382 L 1067 1382 Z M 1067 376 " clip-rule="nonzero"/></clipPath><clipPath id="86f1b92573"><path d="M 1107.722656 332.535156 L 1774.277344 429 L 1629.691406 1428.089844 L 963.132812 1331.628906 Z M 1107.722656 332.535156 " clip-rule="nonzero"/></clipPath><clipPath id="a3f082688e"><path d="M 1107.722656 332.535156 L 1774.277344 429 L 1629.691406 1428.089844 L 963.132812 1331.628906 Z M 1107.722656 332.535156 " clip-rule="nonzero"/></clipPath></defs><g clip-path="url(#7e6eb8bfaa)"><g clip-path="url(#5686517645)"><g clip-path="url(#98f0f7adb9)"><g transform="matrix(1, 0, 0, 1, 147, 115)"><g clip-path="url(#14f788f767)"><g clip-path="url(#6aed3f81a5)"><g clip-path="url(#868926112c)"><g clip-path="url(#7067e73aae)"><path fill="#000000" d="M 72.917969 -115 L 2444.421875 88.75 L 2310.675781 1645.429688 L -60.828125 1441.679688 Z M 72.917969 -115 " fill-opacity="1" fill-rule="nonzero"/></g></g></g></g></g></g></g></g><g clip-path="url(#7bb0402293)"><g clip-path="url(#86f1b92573)"><g clip-path="url(#a3f082688e)"><path fill="#ffffff" d="M 1261.621094 1051.847656 C 1234.023438 1047.851562 1219.878906 1028.917969 1229.578125 1000.730469 C 1289.828125 817.953125 1424.957031 857.207031 1474.277344 720.722656 C 1488.550781 680.535156 1473.664062 627.695312 1419.855469 619.910156 C 1355.035156 610.53125 1318.128906 641.796875 1300.277344 696.957031 C 1292.144531 723.933594 1276.558594 734.363281 1249.78125 724.863281 L 1097.53125 667.617188 C 1073.53125 658.5 1063.308594 641.527344 1068.285156 616.90625 C 1090.917969 518.789062 1170.085938 341.558594 1454.210938 382.679688 C 1763.160156 427.390625 1738.863281 673.113281 1731.511719 714.304688 C 1698.375 943.253906 1535.589844 939.417969 1469.378906 1046.699219 C 1456.316406 1068.757812 1442.316406 1077.996094 1417.496094 1074.40625 Z M 1452.222656 1263.316406 C 1441.351562 1338.410156 1371.660156 1390.480469 1296.566406 1379.613281 C 1221.472656 1368.746094 1169.402344 1299.054688 1180.269531 1223.960938 C 1191.136719 1148.867188 1260.828125 1096.796875 1335.925781 1107.664062 C 1411.019531 1118.53125 1463.089844 1188.222656 1452.222656 1263.316406 Z M 1452.222656 1263.316406 " fill-opacity="1" fill-rule="nonzero"/></g></g></g></svg>